<svg version="1.2" xmlns="http://www.w3.org/2000/svg" viewBox="0 0 170 170" width="120" height="120">
	<title>amazon (1)-svg</title>
	<style>
		.s0 { fill: #ffffff } 
	</style>
	<path fill-rule="evenodd" class="s0" d="m57 3c0.3 15.8 0.7 31.7 1 48 17 2.8 17 2.8 32.8-2.4 7.9-6.4 17.6-15.4 22.2-24.6q0.2-2.4 0.3-4.8 0.1-1.4 0.1-2.8 0.1-1.5 0.2-3c0-1.5 0-1.5 0.1-3q0.2-3.7 0.3-7.4c16.8 0.5 30.3 3.9 42.3 16.2 11.1 13.2 11 30.3 11 46.6q0 2.4 0 4.8 0 4.9 0 9.9-0.1 6.3 0 12.6 0 4.9 0 9.9 0 2.3 0 4.6c0 17.3-1.3 33.3-13.9 46.2-14.4 13.3-32.7 13.4-51.3 13.4q-2 0-3.9 0-4.1 0-8.2 0-4.2 0-8.3 0c-49.6 0.2-49.6 0.2-65.7-14.2-9.5-10.5-12-23.5-12.6-37.2q0-1.5-0.1-3.1c-0.5-14.9-0.5-29.8-0.3-44.7q0-1.8 0-3.6c0.3-16 0.5-31.4 11-44.4q0.9-1.2 1.9-2.5c9.9-11.6 26.5-14.5 41.1-14.5zm72 79q0 1 0 2c5.6 0 11.2 0 17 0 0 9 0 9-1.5 13.5q-0.4 1.3-0.8 2.6c-0.4 0.9-0.4 0.9-0.7 1.9 4.5-1.5 5.9-4.9 8-9 1.7-4.4 2.5-8.4 1-13-2.3-2.3-7.1-1.2-10.2-1.3-5 0.1-8.5 0.8-12.8 3.3zm-112-1c1.5 4.2 4.5 6.3 8.1 8.8q0.9 0.6 1.8 1.3c22.2 15.1 49.7 20.7 76.2 16.2 4.1-0.9 8-2 11.9-3.3q1.7-0.6 3.5-1.1c7.5-2.7 15.1-6.1 21.5-10.9q0-1.5 0-3c-4.1 0.7-8 1.9-11.9 3.1-8.3 2.6-16.4 4.9-25.1 5.9q-1.3 0.2-2.7 0.3c-29.1 3.2-57.6-3.6-83.3-17.3z"/>
	<path class="s0" d="m61 3c15.8 0 31.7 0 48 0 0 6.3 0 12.5 0 19-12.4 0.5-12.4 0.5-25 1-0.3 8.3-0.7 16.5-1 25-7.3 0-14.5 0-22 0 0-14.8 0-29.7 0-45z"/>
	<path class="s0" d="m87 26c5.9 0 11.9 0 18 0-1.7 3.3-2.7 4.9-5.2 7.5q-0.9 0.9-1.9 1.8c-0.9 1-0.9 1-1.9 1.9q-1 1-1.9 2c-1 0.9-1 0.9-1.9 1.9q-0.9 0.8-1.7 1.7c-1.5 1.2-1.5 1.2-3.5 1.2 0-5.9 0-11.9 0-18z"/>
</svg>
