<svg version="1.2" xmlns="http://www.w3.org/2000/svg" viewBox="0 0 216 216" width="216" height="216">
	<title>amazon_foreground</title>
	<style>
		.s0 { fill: #000000 } 
	</style>
	<path id="Path 0" class="s0" d="m190.5 95.9c-2.2 0.5-6 1.7-8.5 2.8-2.5 1.1-5.1 2.7-5.8 3.6-0.6 1-0.9 1.9-0.5 2.1 0.5 0.2 4.6 0 9.3-0.5 4.7-0.6 10.5-0.7 13-0.4 2.5 0.4 5.1 1.2 5.8 1.8 0.7 0.7 1.3 2.8 1.2 4.7 0 1.9-1.4 7.3-3.1 12-1.7 4.7-3.2 9.3-3.5 10.2-0.2 1 0.2 1.8 0.8 1.8 0.7 0.1 3.1-1.8 5.2-4.2 2.2-2.4 5.3-7.2 7-10.8 2.1-4.5 3.1-8.6 3.5-13.5 0.4-6.4 0.2-7.1-1.7-8.3-1.2-0.6-5.9-1.4-10.5-1.7-4.5-0.2-10 0-12.2 0.4zm-189 3.7c-0.5 0.4-0.8 1.3-0.7 2.1 0.1 0.7 5 4.9 10.9 9.3 6 4.4 16 10.7 22.3 13.9 6.3 3.3 15.3 7.3 20 8.9 4.7 1.6 12.8 3.9 18 5 5.2 1.2 14.4 2.6 20.5 3.3 6.4 0.7 15.6 0.9 22 0.5 6-0.3 14.6-1.2 19-2 4.4-0.8 11.8-2.4 16.5-3.6 4.7-1.2 11.9-3.5 16-5.2 4.1-1.6 10.2-4.4 13.5-6 3.3-1.7 8.4-4.6 11.2-6.4 3.5-2.3 5.3-4.1 5.3-5.4 0-1.1-0.6-2.3-1.3-2.6-0.6-0.3-8 1.7-16.2 4.5-8.3 2.7-19.5 5.8-25 7-5.5 1.1-13.8 2.5-18.5 3.1-4.7 0.5-16 1-25.3 1-9.2 0-21.8-0.7-28-1.5-6.1-0.8-16.6-2.8-23.2-4.4-6.6-1.6-16.1-4.4-21-6.1-5-1.8-14.6-5.9-21.5-9.3-6.9-3.4-12.8-6.2-13.1-6.4-0.3-0.2-0.9 0-1.4 0.3z"/>
</svg>
