<svg version="1.2" xmlns="http://www.w3.org/2000/svg" viewBox="0 0 164 164" width="164" height="164">
	<title>anilab</title>
	<style>
		.s0 { fill: #fe396d } 
	</style>
	<path fill-rule="evenodd" class="s0" d="m81.6 3.7q1.4-0.1 2.8-0.1c9.5 1.1 17.7 5.8 25.7 10.5q1.5 0.9 3 1.8 3 1.7 6 3.4 4 2.3 7.9 4.5c13.1 7.5 22.5 14.1 27 29.2 0.3 2.9 0.3 2.9 0.3 5.8q0 1.7 0 3.5 0 1.8 0 3.6c0 1.9 0 1.9 0.1 3.8q0 4 0 8 0 5 0 10.1 0.1 4.9 0.1 9.7 0 1.8 0 3.7c-0.1 10.7-2.9 19.9-10.5 27.8-6.8 5.4-14.4 9.7-21.9 14q-2.7 1.5-5.4 3c-24.6 14.1-24.6 14.1-34.3 14.3q-1.4 0.1-2.8 0.1c-9.5-1.1-17.7-5.8-25.7-10.5q-1.5-0.9-3-1.8-3-1.7-6-3.4-4-2.3-7.9-4.5c-13.1-7.5-22.5-14.1-27-29.2-0.3-2.9-0.3-2.9-0.3-5.8q0-1.7 0-3.5c0-1.8 0-1.8 0-3.6q0-1.9-0.1-3.8 0-4 0-8 0-5 0-10.1-0.1-4.9-0.1-9.7 0-1.8 0-3.7c0.1-10.7 2.9-19.9 10.5-27.8 6.8-5.4 14.4-9.7 21.9-14q2.7-1.5 5.4-3c24.6-14.1 24.6-14.1 34.3-14.3zm-15.6 36.3c-3.4 4.4-2.2 10.1-1.6 15.2q0.3 1.7 0.6 3.4 0.3 1.6 0.6 3.3c3.8 8.3 14.9 12.4 22.5 16.7q1.7 1 3.4 2 3.3 1.9 6.6 3.8 2.6 1.4 5.1 2.9c4 2.5 6.4 3.4 10.9 2.4 2.6-1 4.5-2.2 6.1-4.4 2.3-6.3 1.9-15-0.1-21.4-5.5-7.7-16.3-12-24.3-16.6q-3.5-2-6.9-3.9-1.5-0.9-3.1-1.8-2.8-1.6-5.4-3.3c-5.1-2.8-10-1.8-14.4 1.7zm-21.8 38.6c-3 6-1 13.5-0.1 19.8 2.7 7.5 11 10.8 17.5 14.5q3.1 1.8 6.2 3.5 1.5 0.9 3.1 1.8 3.2 1.9 6.4 3.8 1.6 0.9 3.2 1.9 1.5 0.9 2.9 1.8c3.5 1.7 5.8 2.1 9.6 1.3 2.8-1.2 4.4-2.2 6.1-4.7 2.2-5.7 1.6-13.4 0.3-19.3-2.7-5.9-8.7-8.9-14.1-12.1-0.9-0.5-0.9-0.5-1.9-1.1q-2.9-1.7-5.8-3.4-2-1.1-4-2.2-5.3-3.1-10.6-6.2-0.9-0.6-1.9-1.1c-7-4.2-10.8-3.8-16.9 1.7z"/>
</svg>
