<svg xmlns="http://www.w3.org/2000/svg" version="1.1" viewBox="140.22 126.08 151.72 179.94">
<path d="M0 0 C4.09199748 -0.17548662 8.18016453 -0.27457611 12.27539062 -0.33496094 C13.94796854 -0.36701526 15.6203065 -0.41518077 17.29199219 -0.47851562 C31.20976674 -0.99408847 31.20976674 -0.99408847 36.00756836 1.84033203 C38.04837909 3.8416266 39.63418207 5.79319942 41.19702148 8.17993164 C42.16768555 9.45030273 42.16768555 9.45030273 43.15795898 10.74633789 C43.85791992 11.7344043 43.85791992 11.7344043 44.57202148 12.74243164 C47.02271018 15.63145963 47.02271018 15.63145963 50.61108398 16.38696289 C52.34393245 16.16446724 54.07154733 15.8968848 55.79077148 15.58618164 C59.58439226 14.94570021 61.70707464 15.55959918 65.19702148 17.17993164 C68.73115715 19.98382791 71.96044363 23.04176325 75.19702148 26.17993164 C75.77452148 26.67235352 76.35202148 27.16477539 76.94702148 27.67211914 C79.42231878 29.82394008 80.16368314 30.94656321 80.63452148 34.24243164 C80.19702148 37.17993164 80.19702148 37.17993164 79.13452148 39.11743164 C77.65972951 42.36197398 78.45329322 44.74733964 79.19702148 48.17993164 C79.96931822 50.11649481 80.77268116 52.01445068 81.67358398 53.89477539 C83.49315897 61.83844231 79.54391214 71.25768706 77.55639648 78.97680664 C77.18848925 80.41631795 76.82075562 81.85587363 76.45318604 83.29547119 C75.68327788 86.30538631 74.90941069 89.31425115 74.13305664 92.32250977 C73.14756056 96.14354824 72.17480473 99.9677001 71.20544052 103.79285812 C70.4497939 106.76650637 69.68579684 109.73796442 68.91956329 112.70890045 C68.55794962 114.11611105 68.19914965 115.52404828 67.84343719 116.93276215 C63.01016879 136.03446314 57.65261662 147.21576178 40.88452148 157.92993164 C38.74624778 159.32147023 36.6082295 160.71340139 34.47045898 162.10571289 C33.41439453 162.78843262 32.35833008 163.47115234 31.27026367 164.17456055 C28.42232588 166.03291462 25.60489073 167.92743607 22.79858398 169.84790039 C21.57715698 170.6807959 21.57715698 170.6807959 20.33105469 171.53051758 C18.82339797 172.56109584 17.31911364 173.59663147 15.81884766 174.63793945 C8.96705891 179.27960604 8.96705891 179.27960604 5.19702148 179.17993164 C-2.03071828 176.32644614 -8.32783497 171.62940204 -14.71020508 167.25488281 C-16.5314464 166.00718291 -18.35810988 164.76778267 -20.18579102 163.52954102 C-47.7241524 144.80457184 -52.92430486 126.25251576 -61.07104492 94.81323242 C-61.99826546 91.23757396 -62.94038971 87.66601279 -63.88574791 84.09511375 C-64.61782234 81.31931571 -65.33918248 78.54081447 -66.05763626 75.76146317 C-66.56588212 73.80638996 -67.08536127 71.85424798 -67.60507202 69.90219116 C-67.90934113 68.71300079 -68.21361023 67.52381042 -68.52709961 66.29858398 C-68.79847748 65.25874359 -69.06985535 64.2189032 -69.34945679 63.14755249 C-70.17097521 57.77194415 -68.67706585 53.62075222 -66.55297852 48.74243164 C-65.05967011 44.99818899 -65.05967011 44.99818899 -65.20922852 41.09008789 C-66.00021685 39.41656165 -66.89855367 37.79497601 -67.80297852 36.17993164 C-67.99047852 33.24243164 -67.99047852 33.24243164 -67.80297852 31.17993164 C-67.14297852 31.17993164 -66.48297852 31.17993164 -65.80297852 31.17993164 C-65.55032227 30.6037207 -65.29766602 30.02750977 -65.03735352 29.43383789 C-61.87471881 23.65902704 -56.06097889 18.22336034 -49.80297852 16.17993164 C-45.25150141 15.76543635 -41.21617195 16.02725772 -36.80297852 17.17993164 C-36.43760986 16.70048096 -36.07224121 16.22103027 -35.69580078 15.72705078 C-33.9679268 13.52178372 -32.16985488 11.38546997 -30.36547852 9.24243164 C-29.79249023 8.48768555 -29.21950195 7.73293945 -28.62915039 6.95532227 C-24.90663399 2.65417637 -21.88931991 0.78727965 -16.12850952 0.30099487 C-13.14323763 0.17559121 -10.16659819 0.15349878 -7.1789856 0.17727661 C-4.78009566 0.17995721 -2.39654373 0.10304032 0 0 Z M-4.80297852 31.24243164 C-11.64358649 33.74918347 -17.58301682 33.4045009 -24.54907227 31.38305664 C-27.7248181 30.64430158 -29.6233793 30.37604992 -32.80297852 31.17993164 C-37.28321178 35.31506586 -40.47943716 40.10321236 -43.80297852 45.17993164 C-44.54418945 46.22665039 -45.28540039 47.27336914 -46.04907227 48.35180664 C-50.42278176 54.66447471 -50.42278176 54.66447471 -50.80297852 62.17993164 C-49.81767146 64.06799106 -49.81767146 64.06799106 -48.17797852 65.61743164 C-47.55407227 66.28387695 -46.93016602 66.95032227 -46.28735352 67.63696289 C-44.8962893 69.06083523 -43.50511298 70.48459815 -42.11352539 71.90795898 C-40.8550652 73.20115585 -39.6014548 74.49908683 -38.35229492 75.80126953 C-37.08522553 77.12058423 -35.80644487 78.42876609 -34.51538086 79.72460938 C-31.01447311 83.36382342 -28.78793132 85.86827331 -28.80297852 91.17993164 C-29.80297852 93.51326497 -30.80297852 95.84659831 -31.80297852 98.17993164 C-31.68327022 104.04563816 -28.92692286 107.98518916 -24.92797852 112.11743164 C-21.89528432 113.63377874 -20.0789185 112.9158312 -16.80297852 112.17993164 C-9.24856992 109.2689662 -1.28183506 105.20391618 3.19702148 98.17993164 C2.93162695 95.63150459 2.52385048 94.48849197 0.64648438 92.71606445 C-0.00586182 92.27617187 -0.65820801 91.8362793 -1.33032227 91.38305664 C-2.03995117 90.8996582 -2.74958008 90.41625977 -3.48071289 89.91821289 C-4.22643555 89.42708008 -4.9721582 88.93594727 -5.74047852 88.42993164 C-6.85326172 87.6700293 -6.85326172 87.6700293 -7.98852539 86.89477539 C-11.59725612 84.16678292 -11.59725612 84.16678292 -15.80297852 83.17993164 C-16.40126617 77.35731069 -13.39590994 73.92303056 -10.33422852 69.21508789 C-8.61999957 65.81724122 -8.17741425 63.92810418 -8.80297852 60.17993164 C-11.53624469 57.71320256 -14.3122122 56.44496778 -17.75219727 55.20727539 C-19.14728516 54.69390625 -19.14728516 54.69390625 -20.57055664 54.17016602 C-22.52878829 53.46415474 -24.48712286 52.75842889 -26.44555664 52.05297852 C-27.83484375 51.54154297 -27.83484375 51.54154297 -29.25219727 51.01977539 C-30.10128662 50.71418701 -30.95037598 50.40859863 -31.82519531 50.09375 C-33.80297852 49.17993164 -33.80297852 49.17993164 -34.80297852 47.17993164 C-23.02715015 46.7572698 -12.87351482 46.65474892 -1.80297852 51.17993164 C-2.24412678 58.48209629 -2.97428617 65.54615854 -4.39282227 72.72290039 C-4.92975937 75.93940933 -4.94750368 78.92811545 -4.80297852 82.17993164 C3.87127882 84.61481089 9.83863249 84.69925332 18.19702148 81.17993164 C18.07584961 80.34333008 17.95467773 79.50672852 17.82983398 78.64477539 C16.88425124 72.07661214 15.95746301 65.5064642 15.07202148 58.92993164 C14.90444336 57.68727539 14.73686523 56.44461914 14.56420898 55.16430664 C14.19702148 52.17993164 14.19702148 52.17993164 14.19702148 50.17993164 C25.06846228 46.39856093 35.83585833 46.86860128 47.19702148 47.17993164 C45.79756747 49.97883967 44.32230732 50.02198504 41.39233398 51.01977539 C40.41651367 51.36073242 39.44069336 51.70168945 38.43530273 52.05297852 C36.3679722 52.75981361 34.30026627 53.46555178 32.23217773 54.17016602 C31.2537793 54.51241211 30.27538086 54.8546582 29.26733398 55.20727539 C28.36772949 55.5139917 27.468125 55.82070801 26.54125977 56.13671875 C24.13008691 57.2097183 22.78746184 58.08409631 21.19702148 60.17993164 C21.07074355 66.24127266 23.8237005 70.44680683 26.91967773 75.53149414 C28.2815356 78.35516275 28.45912953 80.09040281 28.19702148 83.17993164 C27.1702832 83.52411133 27.1702832 83.52411133 26.12280273 83.87524414 C22.47609195 85.50141424 19.54389593 87.63873223 16.38452148 90.05493164 C15.78704102 90.4893457 15.18956055 90.92375977 14.57397461 91.37133789 C12.64020623 92.79657048 12.64020623 92.79657048 10.19702148 95.17993164 C9.772862 99.13732916 9.772862 99.13732916 11.99780273 101.36352539 C18.25191728 106.9756935 25.15906702 112.67455219 33.85717773 113.40258789 C37.32595401 113.072504 38.76331545 111.61363767 41.19702148 109.17993164 C44.36978792 104.63229975 44.37177025 101.40317298 43.61889648 96.13305664 C43.26727231 94.11352394 43.26727231 94.11352394 42.19702148 92.17993164 C41.65795898 89.58227539 41.65795898 89.58227539 42.19702148 86.17993164 C44.42631921 83.06185421 47.10352614 80.43474183 49.82202148 77.74243164 C51.95234556 75.57551067 54.07850334 73.40481042 56.19799805 71.22729492 C57.48105746 69.91320891 58.77883224 68.61324257 60.09448242 67.33178711 C62.98778868 64.33389344 64.14996665 63.00903776 64.39233398 58.73852539 C62.90924702 54.32319132 60.79776806 50.98825665 58.07202148 47.24243164 C57.57065674 46.54384033 57.06929199 45.84524902 56.55273438 45.12548828 C55.55842854 43.75197223 54.5570937 42.38351146 53.5480957 41.02075195 C52.41840869 39.48156871 51.33495111 37.90859553 50.26342773 36.32836914 C48.6844597 34.18521349 47.43350971 32.62219856 45.19702148 31.17993164 C41.69742207 30.74474829 38.61620513 31.42791178 35.19702148 32.17993164 C27.50451963 33.51089237 22.47468582 32.82450595 15.16577148 30.12133789 C8.07842183 27.87390201 2.06749067 28.70142048 -4.80297852 31.24243164 Z M-2.11547852 112.92993164 C-3.24985352 113.47391602 -4.38422852 114.01790039 -5.55297852 114.57836914 C-6.62547852 115.10688477 -7.69797852 115.63540039 -8.80297852 116.17993164 C-9.66922852 116.60532227 -10.53547852 117.03071289 -11.42797852 117.46899414 C-13.22534138 118.36125642 -15.01524147 119.26853628 -16.80297852 120.17993164 C-15.26638859 124.2961301 -12.62632976 126.04403427 -9.11547852 128.55493164 C-5.52029574 131.14046055 -2.08574994 133.75564808 1.13452148 136.80493164 C3.84903065 139.41764287 3.84903065 139.41764287 6.45874023 139.15649414 C10.28434692 137.79215509 12.97107504 135.50620602 16.07202148 132.92993164 C17.25564292 131.96482493 18.44053809 131.0012782 19.62670898 130.03930664 C20.20775391 129.56428711 20.78879883 129.08926758 21.38745117 128.59985352 C23.25679456 127.1330293 25.1827743 125.78874753 27.14233398 124.44555664 C28.15038086 123.69790039 29.15842773 122.95024414 30.19702148 122.17993164 C30.19702148 121.51993164 30.19702148 120.85993164 30.19702148 120.17993164 C26.80888531 118.49727519 23.4103806 116.83670303 20.00952148 115.17993164 C19.04981445 114.70297852 18.09010742 114.22602539 17.10131836 113.73461914 C16.1699707 113.28344727 15.23862305 112.83227539 14.27905273 112.36743164 C13.42545166 111.94848633 12.57185059 111.52954102 11.69238281 111.09790039 C6.33790698 109.12814898 2.86726571 110.51911886 -2.11547852 112.92993164 Z " fill="#000000" transform="translate(209.802978515625,126.820068359375)"/>
</svg>
