<svg version="1.2" xmlns="http://www.w3.org/2000/svg" viewBox="0 0 180 180" width="180" height="180">
	<title>brave_foreground (2)-svg</title>
	<style>
		.s0 { fill: #000000 } 
	</style>
	<path fill-rule="evenodd" class="s0" d="m83.8 0.8q6.1-0.2 12.3-0.3 2.5-0.1 5-0.2c13.9-0.5 13.9-0.5 18.7 2.4 2.1 2 3.6 3.9 5.2 6.3 1 1.3 1 1.3 2 2.6 0.7 1 0.7 1 1.4 2 2.4 2.9 2.4 2.9 6 3.6q2.6-0.3 5.2-0.8c3.8-0.6 5.9 0 9.4 1.6 3.5 2.8 6.8 5.9 10 9q0.9 0.7 1.7 1.5c2.5 2.1 3.3 3.3 3.7 6.6-0.4 2.9-0.4 2.9-1.5 4.8-1.4 3.3-0.6 5.7 0.1 9.1 0.8 1.9 1.6 3.8 2.5 5.7 1.8 8-2.2 17.4-4.1 25.1q-0.6 2.2-1.1 4.3-1.2 4.5-2.4 9-1.4 5.8-2.9 11.5-1.1 4.5-2.3 8.9-0.5 2.1-1.1 4.3c-4.8 19.1-10.1 30.2-26.9 40.9q-3.2 2.1-6.4 4.2-1.6 1-3.2 2.1-4.3 2.8-8.5 5.7c-1.2 0.8-1.2 0.8-2.5 1.7q-2.2 1.5-4.5 3.1c-6.8 4.6-6.8 4.6-10.6 4.5-7.2-2.9-13.5-7.6-19.9-11.9q-2.7-1.9-5.5-3.8c-27.5-18.7-32.7-37.2-40.9-68.7q-1.4-5.3-2.8-10.7-1.1-4.1-2.2-8.3-0.7-3-1.5-5.9-0.5-1.8-0.9-3.6-0.4-1.5-0.8-3.1c-0.9-5.4 0.6-9.6 2.7-14.4 1.5-3.8 1.5-3.8 1.4-7.7-0.8-1.7-1.7-3.3-2.6-4.9-0.2-2.9-0.2-2.9 0-5q1 0 2 0 0.4-0.9 0.8-1.7c3.1-5.8 8.9-11.3 15.2-13.3 4.6-0.4 8.6-0.2 13 1q0.5-0.7 1.1-1.5c1.7-2.2 3.5-4.3 5.3-6.4q0.9-1.2 1.8-2.3c3.7-4.3 6.7-6.2 12.5-6.7q4.4-0.2 8.9-0.1 3.6 0 7.2-0.2zm-4.8 31.3c-6.8 2.5-12.8 2.1-19.7 0.1-3.2-0.7-5.1-1-8.3-0.2-4.5 4.1-7.7 8.9-11 14q-1.1 1.6-2.2 3.2c-4.4 6.3-4.4 6.3-4.8 13.8 1 1.9 1 1.9 2.6 3.4q1 1 1.9 2.1 2.1 2.1 4.2 4.2 1.9 2 3.8 3.9 1.9 2 3.8 3.9c3.5 3.7 5.7 6.2 5.7 11.5q-1.5 3.5-3 7c0.1 5.9 2.9 9.8 6.9 13.9 3 1.6 4.8 0.8 8.1 0.1 7.6-2.9 15.5-7 20-14-0.3-2.5-0.7-3.7-2.6-5.5q-0.9-0.6-1.9-1.3-1.1-0.7-2.2-1.5-1.1-0.7-2.2-1.5c-1.2-0.7-1.2-0.7-2.3-1.5-3.6-2.7-3.6-2.7-7.8-3.7-0.6-5.8 2.4-9.3 5.5-14 1.7-3.4 2.1-5.3 1.5-9-2.7-2.5-5.5-3.7-8.9-5-1.4-0.5-1.4-0.5-2.9-1q-2.9-1.1-5.8-2.1c-1.4-0.5-1.4-0.5-2.8-1.1q-1.3-0.4-2.6-0.9c-2-0.9-2-0.9-3-2.9 11.8-0.4 21.9-0.5 33 4-0.4 7.3-1.2 14.4-2.6 21.5-0.5 3.3-0.5 6.2-0.4 9.5 8.7 2.4 14.6 2.5 23-1q-0.2-1.2-0.4-2.5-1.4-9.9-2.7-19.8-0.3-1.8-0.5-3.7c-0.4-3-0.4-3-0.4-5 10.9-3.8 21.6-3.3 33-3-1.4 2.8-2.9 2.8-5.8 3.8q-1.5 0.5-3 1.1-3.1 1-6.2 2.1-1.4 0.5-2.9 1-1.4 0.5-2.8 1c-2.4 1-3.7 1.9-5.3 4-0.1 6.1 2.6 10.3 5.7 15.4 1.4 2.8 1.6 4.5 1.3 7.6-1 0.3-1 0.3-2.1 0.7-3.6 1.6-6.6 3.8-9.7 6.2q-0.9 0.6-1.8 1.3c-2 1.4-2 1.4-4.4 3.8-0.4 4-0.4 4 1.8 6.2 6.3 5.6 13.2 11.3 21.9 12 3.4-0.3 4.9-1.8 7.3-4.2 3.2-4.5 3.2-7.8 2.4-13-0.3-2.1-0.3-2.1-1.4-4-0.5-2.6-0.5-2.6 0-6 2.2-3.1 4.9-5.7 7.6-8.4q3.2-3.3 6.4-6.6 1.9-1.9 3.9-3.8c2.9-3 4.1-4.4 4.3-8.6-1.5-4.5-3.6-7.8-6.3-11.5q-0.8-1.1-1.5-2.2-1.5-2-3-4.1-1.7-2.3-3.3-4.7c-1.6-2.1-2.9-3.7-5.1-5.1-3.5-0.4-6.6 0.2-10 1-7.7 1.3-12.7 0.6-20-2.1-7.1-2.2-13.1-1.4-20 1.2zm2.7 81.6q-1.7 0.9-3.5 1.7-1.6 0.8-3.2 1.6-1.3 0.6-2.6 1.3-2.7 1.3-5.4 2.7c1.5 4.1 4.2 5.9 7.7 8.4 3.6 2.6 7 5.2 10.2 8.2 2.8 2.6 2.8 2.6 5.4 2.4 3.8-1.4 6.5-3.7 9.6-6.3q1.8-1.4 3.5-2.8 0.9-0.7 1.8-1.5c1.9-1.4 3.8-2.8 5.7-4.1q1.5-1.2 3.1-2.3 0-1 0-2-5.1-2.5-10.2-5-1.4-0.7-2.9-1.4-1.4-0.7-2.8-1.4-1.3-0.6-2.6-1.3c-5.4-2-8.8-0.6-13.8 1.8z"/>
</svg>
