<svg version="1.2" xmlns="http://www.w3.org/2000/svg" viewBox="0 0 514 514" width="160" height="160">
	<title>brave-browser-icon (1)-svg</title>
	<defs>
		<linearGradient id="g1" x2="1" gradientUnits="userSpaceOnUse" gradientTransform="matrix(436.875,0,0,512.428,38.971,256.323)">
			<stop offset="0" stop-color="#f1562b"/>
			<stop offset=".3" stop-color="#f1542b"/>
			<stop offset=".41" stop-color="#f04d2a"/>
			<stop offset=".49" stop-color="#ef4229"/>
			<stop offset=".5" stop-color="#ef4029"/>
			<stop offset=".56" stop-color="#e83e28"/>
			<stop offset=".67" stop-color="#e13c26"/>
			<stop offset="1" stop-color="#df3c26"/>
		</linearGradient>
	</defs>
	<style>
		.s0 { fill: url(#g1) } do
		.s1 { fill: #ffffff } 
	</style>
	<path class="s0" d="m475.5 166.6l-15.8-42.8 11-24.6q0.5-1.2 0.7-2.5 0.1-1.2-0.1-2.5-0.2-1.2-0.8-2.4-0.6-1.1-1.5-2l-29.9-30.2c-3.2-3.2-6.8-6-10.8-8.2-3.9-2.2-8.2-3.9-12.6-4.9-4.4-1-9-1.4-13.5-1.2-4.6 0.3-9 1.1-13.3 2.6l-8.2 2.9-45.6-49.4-77.8-0.4-77.9 0.6-45.6 49.8-8.1-2.9c-4.3-1.5-8.8-2.4-13.3-2.6-4.6-0.3-9.2 0.1-13.6 1.2-4.5 1-8.8 2.7-12.8 4.9-4 2.2-7.6 5-10.8 8.3l-30.6 30.8q-0.7 0.7-1.2 1.6-0.4 0.9-0.6 1.9-0.2 1-0.1 2 0.1 1 0.6 1.9l11.4 25.6-15.7 42.8 56.5 214.7q2 7.6 5.2 14.7 3.3 7.1 7.7 13.5 4.5 6.4 9.9 12 5.5 5.5 11.9 10.1l111.7 75.7c2.1 1.7 4.6 3.1 7.2 4 2.6 0.9 5.4 1.4 8.2 1.4 2.8 0 5.5-0.5 8.2-1.4 2.6-0.9 5.1-2.3 7.2-4l111.7-75.8q6.3-4.6 11.8-10.1 5.5-5.6 9.9-12 4.5-6.4 7.7-13.5 3.2-7.1 5.2-14.7l46.1-176.1z"/>
	<path class="s1" d="m270 318.3q-1.1-0.5-2.2-0.9-1.2-0.5-2.3-0.9-1.1-0.4-2.3-0.8-1.1-0.3-2.3-0.7h-5.5q-1.2 0.4-2.3 0.7-1.2 0.4-2.3 0.8-1.2 0.4-2.3 0.9-1.1 0.4-2.2 0.9l-13.8 5.8-15.6 7.1-25.4 13.3c-1 0.3-1.8 0.8-2.4 1.6-0.6 0.8-0.9 1.7-1 2.7-0.1 1 0.2 1.9 0.6 2.8 0.5 0.8 1.3 1.5 2.2 1.9l22 15.5q7 5 13.6 10.7l6.2 5.4 13 11.4 5.9 5.2q1.3 1.1 3 1.7 1.7 0.6 3.4 0.6 1.8 0 3.5-0.6 1.7-0.6 3-1.7l25.4-22.2 13.6-10.8 22.1-15.8c0.8-0.4 1.6-1.1 2.1-1.9 0.4-0.8 0.7-1.8 0.6-2.8-0.1-0.9-0.4-1.9-1.1-2.6-0.6-0.8-1.4-1.3-2.3-1.6l-25.4-12.8-15.7-7.2zm156.4-142.1l0.8-2.3q0.1-1.2 0-2.3 0-1.2-0.1-2.3 0-1.2-0.2-2.3-0.1-1.2-0.2-2.3-0.8-2.1-1.7-4-0.9-2-2-4-1-1.9-2.1-3.8-1.2-1.9-2.4-3.6l-14.4-21.1-10.2-13.9-19.2-24q-0.7-0.9-1.4-1.7-0.7-0.9-1.4-1.7-0.7-0.8-1.4-1.7-0.8-0.8-1.5-1.6h-0.4l-8.6 1.6-42.2 8.2q-1.6 0-3.2 0-1.6-0.1-3.2-0.4-1.6-0.2-3.2-0.6-1.5-0.4-3-0.9l-23.2-7.5-16.6-4.6q-1.9-0.2-3.7-0.3-1.8-0.1-3.7-0.1-1.8 0-3.6 0.1-1.9 0.1-3.7 0.3l-16.7 4.7-23.2 7.5q-1.5 0.5-3 0.9-1.6 0.4-3.2 0.6-1.6 0.3-3.2 0.3-1.6 0.1-3.2 0l-42.2-7.9-8.5-1.6h-0.4q-0.8 0.8-1.5 1.6-0.8 0.8-1.5 1.6-0.7 0.8-1.4 1.7-0.7 0.9-1.3 1.7l-19.2 24q-5.3 6.8-10.2 13.9l-14.3 21.1-6.8 11.3q-0.5 1.6-0.8 3.3-0.4 1.6-0.6 3.3-0.3 1.7-0.4 3.4-0.2 1.6-0.2 3.3l0.8 2.3q0.2 0.6 0.3 1.1 0.1 0.6 0.3 1.1 0.2 0.6 0.4 1.1 0.1 0.5 0.3 1.1l11.4 13 50.2 53.4q1.3 1.4 2.1 3.2 0.8 1.7 1.1 3.6 0.4 1.9 0.2 3.8-0.2 1.9-0.8 3.7l-8.5 19.5q-0.7 1.9-1.1 3.9-0.3 2-0.4 4 0 2.1 0.3 4.1 0.2 2 0.8 4l1.7 4.5q1 2.7 2.3 5.3 1.4 2.6 3.1 5 1.7 2.3 3.7 4.5 2 2.1 4.3 3.9l7.9 6.5q1.5 1.1 3.3 1.8 1.7 0.7 3.6 0.9 1.9 0.2 3.8 0 1.8-0.3 3.6-1l28.1-13.4q1.9-1 3.8-2.1 1.8-1 3.6-2.2 1.8-1.2 3.6-2.5 1.7-1.3 3.3-2.7l22.5-20.3q0.7-0.6 1.2-1.3 0.6-0.7 0.9-1.6 0.4-0.8 0.6-1.7 0.3-0.8 0.3-1.7 0-0.9-0.1-1.8-0.2-0.9-0.5-1.8-0.3-0.8-0.8-1.6-0.5-0.7-1.1-1.4l-50.8-34.1q-1.4-1.1-2.4-2.5-1-1.5-1.4-3.2-0.4-1.7-0.2-3.5 0.2-1.7 0.9-3.3l19.7-36.9q0.9-1.7 1.3-3.6 0.5-1.8 0.7-3.7 0.1-1.9-0.1-3.8-0.3-1.8-0.9-3.6-0.9-1.7-2.1-3.2-1.2-1.6-2.6-2.8-1.4-1.3-3.1-2.4-1.6-1-3.4-1.7l-61.6-23.2c-4.5-1.6-4.2-3.6 0.5-3.9l36.2-3.6q2.1-0.1 4.2-0.1 2.2 0 4.3 0.2 2.1 0.2 4.2 0.5 2.1 0.4 4.2 0.9l31.5 8.8q1.7 0.5 3.1 1.6 1.3 1 2.3 2.5 0.9 1.5 1.3 3.2 0.3 1.7 0 3.5l-12.3 67.6q-0.4 1.4-0.5 2.8-0.2 1.4-0.3 2.8-0.1 1.5-0.1 2.9 0.1 1.5 0.2 2.9c0.5 1.6 4.8 3.6 9.4 4.7l19.2 4q2.1 0.4 4.2 0.6 2.1 0.2 4.2 0.2 2.2 0 4.3-0.2 2.1-0.2 4.2-0.6l17.2-4c4.7-1 8.8-3.2 9.4-4.8q0.1-1.5 0.2-2.9 0-1.4-0.1-2.9-0.1-1.4-0.3-2.8-0.1-1.4-0.5-2.8l-12.4-67.6q-0.3-1.8 0.1-3.5 0.3-1.7 1.2-3.2 1-1.5 2.4-2.5 1.4-1.1 3-1.6l31.5-8.8q2.1-0.5 4.2-0.9 2.1-0.3 4.2-0.5 2.1-0.2 4.3-0.2 2.1-0.1 4.2 0.1l36.2 3.3c4.8 0.5 5 2.2 0.6 3.9l-61.7 23.4q-1.7 0.7-3.4 1.7-1.6 1-3 2.3-1.5 1.3-2.6 2.9-1.2 1.5-2.1 3.2-0.6 1.8-0.9 3.7-0.2 1.8-0.1 3.7 0.2 1.9 0.6 3.7 0.5 1.9 1.4 3.6l19.7 36.9q0.8 1.6 1 3.3 0.2 1.8-0.3 3.5-0.4 1.7-1.4 3.2-1 1.4-2.4 2.5l-50.7 34.2c-0.8 0.9-1.4 1.9-1.9 3-0.4 1.1-0.6 2.3-0.6 3.5 0.1 1.1 0.3 2.3 0.8 3.4 0.5 1.1 1.2 2.1 2.1 2.9l0.1 0.1 22.5 20.3q1.6 1.4 3.4 2.7 1.7 1.3 3.5 2.5 1.8 1.1 3.6 2.2 1.9 1.1 3.8 2.1l28.1 13.3q1.8 0.7 3.6 1 1.9 0.2 3.8 0 1.9-0.2 3.6-0.9 1.8-0.7 3.3-1.8l7.9-6.5q2.3-1.8 4.3-4 2-2.1 3.7-4.5 1.7-2.4 3.1-5 1.3-2.6 2.3-5.3l1.7-4.5q0.6-2 0.8-4 0.3-2 0.3-4.1-0.1-2-0.5-4-0.3-2-1-3.9l-8.3-19.5q-0.6-1.8-0.8-3.7-0.2-1.9 0.1-3.8 0.4-1.9 1.2-3.7 0.8-1.7 2.1-3.2l50.2-53.4 11.3-13q0.2-0.5 0.4-1.1 0.2-0.5 0.4-1 0.2-0.5 0.4-1.1 0.2-0.5 0.3-1z"/>
</svg>
