<svg version="1.2" xmlns="http://www.w3.org/2000/svg" viewBox="0 0 157 157" width="157" height="157">
	<title>expert_raw</title>
	<style>
		.s0 { fill: #fe396d } 
		.s1 { fill: #fe4198 } 
	</style>
	<path fill-rule="evenodd" class="s0" d="m46.5 19q1.2 0 2.4 0 3.8 0 7.7 0 2.7 0.1 5.4 0.1 5.6 0 11.3 0 7.2 0.1 14.4 0.1 5.5 0 11.1 0 2.7 0 5.3 0c16.1 0 29.2 2.3 41.4 13.7 6.9 7.4 11 16.8 11 26.9 0 1.7 0 1.7 0 3.4q0 1.8 0 3.7 0 1.9 0 3.8 0 4 0 8 0 5.1 0 10.2 0 4.9 0 9.8 0 1.8 0 3.6c-0.1 12.4-3.9 22.9-12.5 32-9.3 8.5-20.2 12.3-32.6 12.1-1.2 0.1-1.2 0.1-2.4 0.1q-3.9 0-7.7-0.1-2.7 0-5.4 0-5.7 0-11.3-0.1-7.2 0-14.4 0-5.6 0-11.2 0-2.6-0.1-5.3-0.1c-16.1 0.1-29.1-2.2-41.3-13.6-7-7.4-11-16.8-11-26.9-0.1-1.7-0.1-1.7-0.1-3.5q0-1.8 0-3.6 0-1.9 0-3.9 0-4 0.1-8 0-5.1-0.1-10.1 0-4.9 0.1-9.8 0-1.8-0.1-3.7c0.2-12.4 4-22.9 12.6-31.9 9.2-8.5 20.2-12.3 32.6-12.2zm68.8 25.9c-1.9 3-2 4.8-2 8.5 1.1 4.2 2.6 5.8 5.9 8.5 3.1 1.6 5.6 1.3 9 1.1 2.8-1.2 4.5-2.2 6.4-4.6 1.1-3.5 1.4-6.8 0.7-10.4-1.7-3-3.8-5.4-6.9-7.1-5.7-0.5-8.7 0.3-13.1 4zm-60.3 19.6c-5.2 8-5.9 15.6-5.2 25.1 1.8 7.4 6.6 14.3 13 18.5 8.1 4.1 16.7 5.3 25.6 3.1 8-3.2 14.3-8.6 17.8-16.4 2.9-7.3 3.3-16.4 0.3-23.8-4.7-9-10.8-14.1-20.3-17.3-13-1.1-22.3 1-31.2 10.8z"/>
	<path class="s1" d="m19.1 27.1c0 3.1 0 3.1-1.5 4.9q-1 0.9-2 1.8-1 1-2 1.9-0.8 0.7-1.6 1.4-0.9-0.5-2-1 1.7-2 3.4-3.9 1-1.1 2-2.2c1.7-1.9 1.7-1.9 3.7-2.9zm-10.1 10q1 1 2 2c-1 1.5-1 1.5-2 3q-1 0-2 0 1-2.5 2-5z"/>
</svg>
