<svg version="1.2" xmlns="http://www.w3.org/2000/svg" viewBox="0 0 179 179" width="120" height="120">
	<title>camera_foreground-svg</title>
	<style>
		.s0 { fill: #000000 } 
	</style>
	<path fill-rule="evenodd" class="s0" d="m40.3 22.6q1.8 0 3.7 0 4.8 0 9.7 0 4.1 0 8.2 0 9.6-0.1 19.2 0 9.9 0 19.8-0.1 8.6 0 17.1 0 5.1 0 10.2 0 5.7 0 11.3 0 1.7 0 3.4 0c10.7 0.1 19.4 2.8 27.2 10.3 5.9 6.8 7 13.7 7.1 22.4q0 1.2 0 2.5 0 4.1 0 8.2 0 1.3 0.1 2.8 0 7.4 0 14.8 0 7.6 0.1 15.2 0 5.9 0 11.8 0 2.8 0.1 5.6c0.1 12.2 0 22.9-8.7 32.4-5.6 4.7-11.8 7.6-19.1 7.7q-1.6 0-3.3 0-1.8 0-3.6 0c-1.9 0-1.9 0-3.8 0q-6.3 0.1-12.6 0.1-2.2 0-4.3 0-9.1 0-18.1 0-12.9 0.1-25.8 0.1-9.1 0.1-18.1 0.1-5.5 0-10.9 0.1-6 0-12.1 0-1.8 0-3.6 0c-9.4 0-16.3-2.5-23.4-8.9-6.9-7.5-8.3-16.5-8.2-26.4q-0.1-1.1-0.1-2.3 0-3.6 0-7.3 0-2.6 0-5.2 0-5.4 0-10.8 0-6.9 0-13.8 0-5.3 0-10.6 0-2.5 0-5.1c-0.1-25.7-0.1-25.7 9.2-35.2 8.8-7.4 18.2-8.4 29.3-8.4zm92.4 23c-3.1 4.4-3.4 8-2.7 13.4 2.5 4.6 4.9 8.3 10 10 4.2 0.4 7.9 0.5 11.8-1.2 3.4-2.8 6.9-6.2 7.4-10.8 0.2-5.5-0.4-8.6-4.2-13-3.3-2.9-5.9-3.9-10.3-4.3-5.4 0.4-8.4 1.9-12 5.9zm-71 23.1c-5.7 8.3-8 17.2-6.7 27.3 2.6 10.8 8 18.5 17.2 24.5 8.4 4.5 17.6 5.6 26.8 3.5 9.7-3.6 16.8-8.6 21.8-17.7 4.2-9.2 5.3-18.6 2.2-28.3-4.6-10.4-11.5-17.4-22.1-21.9-14.7-4.2-29.6 0.9-39.2 12.6z"/>
</svg>
