<svg version="1.2" xmlns="http://www.w3.org/2000/svg" viewBox="0 0 129 129" width="129" height="129">
	<title>svgviewer-output (14) (1)-svg</title>
	<style>
		.s0 { fill: #000000;stroke: #000000;stroke-width: .6 } 
		.s1 { opacity:1 ;fill: #000000;stroke: #000000;stroke-width: .6 } 
	</style>
	<g id="surface1">
		<path fill-rule="evenodd" class="s0" d="m53.8 7.4q11.2 0.1 22.4 0c2.9 0 5.1 0.9 7 3 3.9 4.2 7.8 8.3 11.7 12.5 0.8 0.9 1.8 1.3 3.1 1.3 6 0 12.1 0.2 18.1-0.1 7-0.2 11.4 5.7 11.3 11.5-0.1 24.2 0 48.3 0.1 72.5 0 6.1-4.4 10.2-8.3 11q-1.4 0.2-2.8 0.2-25.7 0-51.4 0h-25.9q-12.9 0-25.8 0c-5.2 0-9.3-3.2-10.5-8.1-0.3-1.1-0.3-2.2-0.3-3.2q0-28.3 0-56.6 0-8.4 0.1-16.7c0.1-5.7 4.5-10.3 10.2-10.5q8.9-0.2 17.7 0c2.3 0.1 3.8-0.6 5.3-2.3 3.4-3.9 7-7.5 10.5-11.3 2-2.2 4.4-3.3 7.5-3.2zm-22.2 61.3c-0.5 19.5 15.5 34.4 33.4 34.5 18.4 0 33.4-15.1 33.6-33 0.3-18.7-14.9-34.3-33.4-34.1-18.6-0.3-33.1 15.1-33.6 32.6zm81.4-36.7c-3.5 0-6.4 3-6.4 6.5 0 3.5 2.8 6.3 6.4 6.3 3.6 0 6.3-2.7 6.3-6.3 0-3.5-2.9-6.5-6.3-6.5z"/>
		<path class="s1" d="m39.9 69.3c0-13.7 11.6-25 25.4-24.9 13.7 0.1 25 11.6 24.8 25.5-0.1 13.6-11.6 24.8-25.3 24.8-13.7-0.1-25-11.6-24.9-25.4z"/>
	</g>
</svg>
