<svg version="1.2" xmlns="http://www.w3.org/2000/svg" viewBox="0 0 517 509" width="24" height="24">
	<style>
		.s0 { fill: #000000 } 
	</style>
	<g id="g_0">
		<path id="Layer" fill-rule="evenodd" class="s0" d="m652.8-9v525.8h-129.1v-525.8h-530.6v85.9c-46.4-1.3-83.6-39.2-83.6-85.9zm-659.7 525.8h530.5-530.5zm-83.7 0c0.1-46.7 37.3-84.6 83.7-85.8v85.8zm83.6-162.4h265.3c55.5 0 100.5-45 100.5-100.5 0-55.4-45-100.4-100.5-100.4h-265.3v-76.6c0.8 0 1.6 0.1 2.4 0.1h262.9c97.7 0 176.9 79.2 176.9 176.9 0 97.7-79.2 177-176.9 177h-262.9c-0.8 0-1.6 0.1-2.4 0.1zm-129.1-200.9h129.1v200.9h-129.1z"/>
		<path id="Layer" class="s0" d="m318 236.2l-78.1-45.1c-13.7-7.9-30.8 2-30.8 17.7v90.2c0 15.8 17.1 25.7 30.8 17.8l78.1-45.1c13.6-7.9 13.6-27.6 0-35.5z"/>
	</g>
</svg>