<svg version="1.2" xmlns="http://www.w3.org/2000/svg" viewBox="0 0 204 204" width="120" height="120">
	<title>svgviewer-output (18)-svg</title>
	<style>
		.s0 { fill: #000000;stroke: #000000 } 
		.s1 { opacity: .5;fill: #000000;stroke: #000000 } 
	</style>
	<path class="s0" d="m92 28h90c11 0 20 9 20 20v120c0 11-9 20-20 20h-160c-11 0-20-9-20-20v-50h70c11 0 20-9 20-20z"/>
	<path class="s1" d="m2 118l90-90v90z"/>
	<path class="s1" d="m22 58h40l-60 60v-40c0-11 9-20 20-20z"/>
	<path class="s1" d="m92 28l-19.3 58c-2 6-6.7 10.7-12.7 12.7l-58 19.3z"/>
	<path class="s1" d="m2 118l90-90v70c0 11-9 20-20 20z"/>
</svg>
