<svg version="1.2" xmlns="http://www.w3.org/2000/svg" viewBox="0 0 171 149" width="138" height="120">
	<title>files_google_foreground-svg-svg</title>
	<style>
		.s0 { fill: #000000 } 
	</style>
	<path class="s0" d="m85 4q14.5-0.1 29-0.2 6.7 0 13.4 0 6.5-0.1 13-0.1 2.5 0 5 0 3.4 0 6.9 0 2-0.1 4-0.1c4.3 0.5 6.9 1.4 10.7 3.4 3.9 4.8 5.1 8.6 5.1 14.6 0 1.4 0 1.4 0 2.8q0 1.5 0 3 0.1 1.6 0.1 3.3 0 5.2 0 10.5 0 3.7 0 7.3 0 7.7 0 15.4 0 9.9 0 19.7 0 7.6 0 15.2 0 3.6 0 7.2 0.1 5.1 0 10.2 0.1 1.5 0.1 3c-0.1 6.7-0.2 12.3-4.7 17.7-3.9 3.2-6.8 3.2-11.7 3.2q-1.9 0.1-3.9 0.1-2.1 0-4.2 0-2.2 0-4.5 0-7.3 0-14.6 0-2.6 0-5.1 0.1-11.8 0-23.7 0-13.7 0-27.4 0.1-10.6 0-21.2 0-6.3 0-12.6 0.1-6 0-11.9 0-2.2 0-4.4 0-2.9 0-5.9 0-1.7 0-3.4 0c-4.7-0.8-7.9-3.1-10.9-6.6-1.8-4.3-1.6-8.3-1.6-12.8q-0.1-1.5-0.1-3 0-4.9 0-9.9 0-3.4 0-6.8-0.1-7.2-0.1-14.4 0-9.2 0-18.4-0.1-7.1-0.1-14.2 0-3.3 0-6.7-0.1-4.8 0-9.5-0.1-1.4-0.1-2.8c0.1-5.7 1.1-9 5.1-13.1 4.2-3.3 8.6-3.5 13.7-3.5q1.7 0 3.5 0 1.9 0 3.8 0c1.9 0 1.9 0 3.8 0q5.1 0 10.2 0.1 5.2 0 10.4 0 10.1 0 20.3 0.1c0 3 0 3-1.3 4.3-0.9 0.8-0.9 0.8-1.8 1.5-4 3.3-7.6 6.8-11.2 10.4-0.9 0.9-0.9 0.9-1.8 1.8q-2.8 2.8-5.6 5.6-2 2-3.9 3.9-5.2 5.2-10.3 10.3-5.3 5.3-10.5 10.6-10.3 10.3-20.6 20.6 14.1 0.1 28.3 0.2 6.6 0 13.1 0 6.4 0.1 12.7 0.1 2.4 0 4.9 0 3.3 0 6.7 0 2 0.1 3.9 0.1c3.7-0.4 5.5-1.1 8.4-3.4 2.6-3.5 2.3-7.4 2.3-11.5q0-1.1 0-2.3 0.1-3.7 0.1-7.4 0-2.6 0.1-5.2 0-6.8 0.1-13.6 0.1-6.9 0.1-13.8 0.2-13.6 0.3-27.2z"/>
</svg>
