<svg version="1.2" xmlns="http://www.w3.org/2000/svg" viewBox="0 0 154 154" width="120" height="120">
	<title>galaxy_store-svg-svg</title>
	<style>
		.s0 { fill: #fe33b2 } 
		.s1 { fill: #fe33ed } 
		.s2 { fill: #fe33d2 } 
		.s3 { fill: #fe33d1 } 
		.s4 { fill: #fe33e2 } 
	</style>
	<path fill-rule="evenodd" class="s0" d="m97.5 7.5c7.7 5.5 13.1 13 16.1 22 0.6 3.8 0.5 7.6 0.4 11.5q0.9 0 1.9-0.1 4.3-0.1 8.7-0.1 1.4-0.1 3-0.2c6.4 0 10.2 0.6 15.4 4.4 5.8 6.3 5.3 12.4 5.1 20.4-0.4 8.5-1.2 16.9-2 25.3q-0.5 5.3-1 10.6-0.3 3.4-0.6 6.8-0.1 1.5-0.3 3.1c-1.1 10.7-4.1 19.7-11.2 27.8q-0.8 0.9-1.6 1.9c-6.2 6.7-15.3 11.6-24.6 12.4q-1.6 0-3.4 0-1.9 0-3.9 0-2 0-4.1 0-2.2 0-4.4 0.1-4.5 0-9 0-5.8 0-11.6 0-4.5 0.1-8.9 0.1-2.2 0-4.3 0c-12.7 0.1-22.5-2-32.2-10.5q-0.9-0.7-1.8-1.5c-13.8-12.4-13.5-31.3-15.1-48.4q-0.4-4.4-0.8-8.7c-2.9-31.6-2.9-31.6 2.7-38.4 4.3-4 7.4-5.1 13.1-5.1q1.5 0 3 0c1.5 0 1.5 0 3.1 0 1.5 0 1.5 0 3.1 0.1q3.9 0 7.7 0c0-0.9 0-0.9-0.1-1.8-0.1-9.8 2.7-17.6 9.1-25.1 13.3-13.5 32-16.3 48.5-6.6zm-33.3 18.7c-3.9 4.9-5.2 8.6-5.2 14.8 11.9 0 23.8 0 36 0-1-8.7-1.9-12.5-8.2-17.9-8.4-3.3-15.4-2.7-22.6 3.1z"/>
	<path class="s1" d="m67 3q2 0 4 0 0 1 0 2-2-0.5-4-1 0-0.5 0-1zm-3 1q1.5 0 3 0 0 1 0 2-1.5-0.5-3-1 0-0.5 0-1zm0 1q0 1 0 2c-1.5 1-1.5 1-3.5 2.1-8.5 5.1-15 12.2-17.8 21.9-0.8 3.7-0.8 7.2-0.7 11-1 1-1 1-3.1 1.1-1.4 0-1.4 0-2.8 0q-1.5 0-3 0-1.6 0-3.2 0-1.5 0-3.1-0.1-3.9 0-7.8 0-0.5-1-1-2c7.3 0 14.5 0 22 0 0-3 0-5.9 0-9 2.5-11.6 9.2-19.3 18.8-25.8 2.2-1.2 2.2-1.2 5.2-1.2zm-46 37q0 1 0 2c-1.7 1.7-1.7 1.7-3.9 3.5-4.1 3.3-4.1 3.3-5.4 8.1q-0.1 1.5-0.3 3c-0.1 1.5-0.1 1.5-0.2 3.1q-0.1 1.1-0.2 2.3-1 0-2 0c-0.5-7.3-0.5-12.1 4-18 4.2-4 4.2-4 8-4z"/>
	<path class="s2" d="m90 5c7 1 11.7 5.2 16.1 10.6 4.9 6.7 4.9 6.7 4.9 10.4q-1 0-2 0-1.4-2.3-2.7-4.6c-4.1-7.1-8.8-11.1-16.3-14.4q0-1 0-2z"/>
	<path class="s3" d="m86 22c4.3 1.6 6.3 4.5 9 8q-1 1-2 2-0.9-1.4-1.8-2.9c-2-3.2-2-3.2-5.2-5.1q0-1 0-2z"/>
	<path class="s4" d="m66 22q1 1 2 2-4 4-8 8-0.5-1-1-2c2.3-2.6 4.6-5.3 7-8z"/>
</svg>
