<svg version="1.2" xmlns="http://www.w3.org/2000/svg" viewBox="0 0 128 128" width="128" height="128">
	<title>svgviewer-output (9) (1)-svg</title>
	<style>
		.s0 { opacity: .8;fill: #000000 } 
		.s1 { opacity: .6;fill: #000000 } 
		.s2 { fill: #000000 } 
	</style>
	<g id="surface1">
		<path class="s0" d="m98.1 62.7q-11.8 8.8-23.7 17.7c-3 2.2-6.1 4.5-9.1 6.8-0.9 0.7-1.5 0.8-2.5 0-10.4-7.9-20.9-15.7-31.3-23.5-0.5-0.4-1-0.7-1.5-1q-0.2-0.3-0.4-0.5c0.7-0.5 0.4-1.2 0.4-1.8q0-17.3 0-34.6 11.2 8.4 22.5 16.8c3.4 2.6 6.9 5.1 10.3 7.8 1 0.7 1.6 0.7 2.5 0 10.4-7.9 20.9-15.7 31.4-23.6 0.5-0.3 1-0.6 1.5-1q0 6.6 0 13.2 0 11.7 0 23.5 0 0.1-0.1 0.2z"/>
		<path class="s1" d="m29.6 62.2q0.2 0.2 0.4 0.5c0 15.4 0 30.8 0 46.2 0 1.6-0.3 2.1-2 2-5.7-0.1-11.5 0-17.2 0-5.6 0-9.1-3.5-9.1-9.1q0-29.3 0-58.5c0-0.6-0.1-1.2 0.1-1.8q0.7 0.5 1.4 0.9 13.2 9.9 26.4 19.8z"/>
		<path class="s1" d="m126.2 41.6c0.4 0.5 0.3 1.2 0.3 1.7q0 29.3 0 58.6c0 5.5-3.6 9-9.1 9-5.8 0-11.7-0.1-17.5 0-1.6 0.1-1.8-0.5-1.8-1.9 0.1-15.4 0-30.9 0-46.3q0.1-0.1 0.1-0.2 0.7-0.5 1.3-1 8.1-6.1 16.2-12.1c3.5-2.6 7-5.2 10.5-7.8z"/>
		<path class="s2" d="m29.6 62.2q-13.2-9.9-26.4-19.8-0.7-0.4-1.4-0.9c-0.2-4.8-0.7-9.6 0.2-14.3 1.8-8.8 11.9-12.9 19.3-7.9 3 2 5.8 4.3 8.7 6.5q0 17.3 0 34.6c0 0.6 0.3 1.3-0.4 1.8z"/>
		<path class="s2" d="m126.2 41.6c-3.5 2.6-7 5.2-10.5 7.8q-8.1 6-16.2 12.1-0.6 0.5-1.3 1 0-11.8 0-23.5-0.1-6.6-0.1-13.2c2.9-2.1 5.7-4.5 8.7-6.5 4.1-2.7 8.5-2.9 12.9-0.6 4.3 2.3 6.7 6 6.7 11 0.1 3.5 0 7 0 10.5 0 0.5 0.2 1-0.2 1.4z"/>
	</g>
</svg>
