<svg version="1.2" xmlns="http://www.w3.org/2000/svg" viewBox="0 0 128 128" width="128" height="128">
	<title>svgviewer-output (11) (1)-svg</title>
	<style>
		.s0 { opacity: .8;fill: #000000 } 
		.s1 { fill: #000000 } 
		.s2 { opacity: .6;fill: #000000 } 
		.s3 { opacity: .4;fill: #000000 } 
	</style>
	<g id="surface1">
		<path class="s0" d="m27.6 65c0-4.1 0.7-8 2-11.6l-21.5-16.1c-4.4 8.6-6.6 18.1-6.6 27.7 0 9.9 2.4 19.3 6.5 27.7l21.5-16.1c-1.2-3.8-1.9-7.7-1.9-11.6z"/>
		<path class="s1" d="m65.4 28.1c9 0 17.2 3.1 23.6 8.2l18.5-18.2c-11.3-9.6-25.8-15.6-42.1-15.6-25.2 0-47 14.1-57.3 34.8l21.5 16.1c4.9-14.7 19.1-25.3 35.8-25.3z"/>
		<path class="s2" d="m65.4 101.9c-16.8 0-30.9-10.6-35.8-25.3l-21.5 16.1c10.3 20.7 32.1 34.8 57.3 34.8 15.6 0 30.5-5.4 41.7-15.6l-20.5-15.4c-5.7 3.5-13 5.4-21.2 5.4z"/>
		<path class="s3" d="m126.4 65c0-3.7-0.6-7.7-1.4-11.4h-59.6v24.2h34.3c-1.7 8.2-6.4 14.5-13.1 18.7l20.5 15.4c11.7-10.6 19.3-26.5 19.3-46.9z"/>
	</g>
</svg>
