<svg version="1.2" xmlns="http://www.w3.org/2000/svg" viewBox="0 0 202 202" width="120" height="120">
	<title>svgviewer-output (19)-svg</title>
	<style>
		.s0 { opacity: .8;fill: #000000;stroke: #000000;stroke-width: 1 } 
		.s1 { fill: #000000;stroke: #000000;stroke-width: 1 } 
		.s2 { opacity: .6;fill: #000000;stroke: #000000;stroke-width: 1 } 
		.s3 { opacity: .5;fill: #000000;stroke: #000000;stroke-width: 1 } 
	</style>
	<path class="s0" d="m1 136.5v33.1c0 7.6 6.1 13.7 13.7 13.7h33.1v-46.8z"/>
	<path class="s1" d="m47.8 19l-46.8 46.8h46.8z"/>
	<path class="s2" d="m1 136.6h46.8v-70.8h-46.8v70.8z"/>
	<path class="s1" d="m189.5 38.8l-29.9 24.5 0.1 76.8 30 24.6c2 1.7 4.9 2 7.2 0.8 2.4-1.1 3.9-3.5 3.9-6.2v-115.2c0-2.7-1.6-5.1-4-6.2-2.4-1.2-5.2-0.8-7.3 0.9zm-75.5 62.3v35.4h-66.2v46.8h98.2c7.5 0 13.7-6.1 13.7-13.7v-29.5l-45.7-39z"/>
	<path class="s3" d="m146 19h-98.2v46.8h66.2v35.3l45.7-37.8v-30.6c-0.1-7.6-6.2-13.7-13.7-13.7z"/>
</svg>
