<svg version="1.2" xmlns="http://www.w3.org/2000/svg" viewBox="0 0 154 154" width="154" height="154">
	<title>google_gallery-cropped (1)-svg</title>
	<style>
		.s0 { fill: #000000;stroke: #000000;stroke-width: .7 } 
		.s1 { opacity: .8;fill: #000000;stroke: #000000;stroke-width: .7 } 
		.s2 { opacity: .5;fill: #000000;stroke: #000000;stroke-width: .7 } 
		.s3 { opacity: .7;fill: #000000;stroke: #000000;stroke-width: .7 } 
	</style>
	<g id="surface1">
		<path class="s0" d="m153.3 112.9c0 5 0.1 10.1 0 15.1 0 6.1-3.8 9.7-10.5 10.1-0.6 0-1.1 0-1.7 0q-64-0.2-128-0.4c-3.6 0-7-0.6-9.6-3.3-2.1-2.1-2.5-4.6-2.5-7.3 0.1-19.5 0.1-39 0.2-58.4q0-1.8 0.1-3.7 13.7 0 27.5 0h-0.1q0 1.4 0.1 2.8 0 11.3 0 22.5c-0.1 6.9-0.1 13.8-0.2 20.7 0 1.2 0.5 1.5 1.7 1.5q21.1 0 42.2 0.1 15.5 0 31.1 0 11.1 0.1 22.2 0.1 13.8 0.1 27.5 0.2z"/>
		<path class="s1" d="m28.8 65q-13.8 0-27.5 0c0-12.5-0.1-25 0.1-37.6 0-5.2 4.2-8.9 10-9.1q1.1 0 2.1 0 55 0.2 110 0.3c0.9 0 1.7 0.1 2.6 0.1q-0.1 12.6-0.1 25.2c-31.6-0.1-63.2-0.2-94.7-0.3-2 0-2.5 0.4-2.5 2.2 0.1 6.4 0 12.8 0 19.2z"/>
		<path class="s2" d="m126 43.9q0-12.6 0.1-25.2c5.9 0 11.8-0.1 17.7 0.1 6.1 0.2 9.9 4.1 9.9 10.1q-0.1 28.8-0.2 57.6c0 8.8-0.1 17.6-0.2 26.4q-13.7-0.1-27.5-0.2 0.1-11 0.1-22 0-23.4 0.1-46.8z"/>
		<path class="s0" d="m101.9 80.2c-8.7 0-15.6-6.4-15.6-14.3 0-7.9 7-14.3 15.7-14.2 8.7 0 15.6 6.4 15.6 14.3 0 7.9-7 14.2-15.7 14.2z"/>
		<path class="s3" d="m28.7 65c11 0.4 21.7 2.1 31.8 6.3 20.2 8.3 34.3 21.8 42.7 40.4q0.2 0.5 0.4 0.9-15.6 0-31.1 0c-0.3-0.4-0.5-0.8-0.8-1.1-10.4-13.6-24.7-20.5-42.9-21.2q0-11.2 0-22.5-0.1-1.4-0.1-2.8z"/>
		<path class="s0" d="m101.9 80.2c-8.7 0-15.6-6.4-15.6-14.3 0-7.9 7-14.3 15.7-14.2 8.7 0 15.6 6.4 15.6 14.3 0 7.9-7 14.2-15.7 14.2z"/>
	</g>
</svg>
