<svg version="1.2" xmlns="http://www.w3.org/2000/svg" viewBox="0 0 164 164" width="164" height="164">
	<title>googletranslate-svg</title>
	<style>
		.s0 { fill: #ffffff } 
	</style>
	<path fill-rule="evenodd" class="s0" d="m26.4 1.6q1.8 0 3.6 0 5.7 0.1 11.4 0.1 3.8 0.1 7.7 0.1 9.4 0.1 18.9 0.2c6.3 19.3 12.1 38.6 17.7 58.1q2 6.9 4 13.8 1.7 5.7 3.3 11.4 3.4 11.8 6.9 23.5 0.7 2.3 1.4 4.7 1.3 4.5 2.7 9 0.6 2 1.2 4.1 0.5 1.7 1.1 3.5c0.7 2.9 0.7 2.9 0.7 5.9q-17.8 0.1-35.7 0.2-8.3 0-16.5 0.1-8 0.1-16 0.1-3.1 0-6.1 0-4.3 0.1-8.6 0.1-1.2 0-2.5 0c-5.4 0-8.3-1-12.6-4.5-3.7-4.1-5.1-7-5.1-12.5q-0.1-1.4-0.1-2.8c0-1.5 0-1.5 0-3q0-1.6 0-3.2 0-5.3 0-10.6 0-1.8-0.1-3.6 0-9.5 0-19.1 0-9.8-0.1-19.7 0-7.5 0-15.1 0-3.6-0.1-7.3 0-5.1 0-10.1 0-1.5 0-3.1c0-7.5 1.6-13 7-18.4 5.3-2.3 10.2-2 15.9-1.9zm-6.2 47.6c-6 8.6-7.1 16.4-6.2 26.8 0.9 3.4 2.2 6.1 4 9q0.6 1 1.3 2.1c4.4 6.7 10.2 10.6 17.8 12.8 8.6 1.7 16.4 1.1 24.2-3.2 6.5-4.5 12-10.9 13.7-18.7 1.1-6.6 1.1-6.6 0-13-9.9 0-19.8 0-30 0 0 3.6 0 7.3 0 11 5.6 0 11.2 0 17 0-3.1 7.3-3.1 7.3-6.4 10-7 1.9-14.7 2.6-21.2-1-4.6-3.5-6.9-7.7-7.8-13.5-0.3-5.9 0.9-10.6 4.4-15.5 3.3-3.3 6.4-5 11-6 6 0 10.8 0.9 16 4 2.6-2.6 5.3-5.3 8-8-5.8-6.5-12.2-8.6-20.6-9.3-9.7 0.2-19.2 5-25.2 12.5z"/>
	<path class="s0" d="m79 25q13.5-0.1 27.1-0.2 6.3 0 12.5 0 6.1-0.1 12.2-0.1 2.3 0 4.6 0 3.2 0 6.5 0 1.8-0.1 3.7-0.1c6.3 0.7 10.3 3.7 14.4 8.4 1 2.9 1.1 4.6 1.1 7.6q0.1 1.4 0.1 2.9 0 1.5 0 3.1 0 1.6 0 3.3 0 5.5 0 10.9 0 1.8 0.1 3.7 0 8.8 0 17.7 0 10.1 0.1 20.3 0 8.8 0 17.6 0 3.7 0.1 7.4 0 5.3 0 10.5 0 1.5 0 3.1c0 6-0.5 9.3-4.5 13.9-4.6 4.2-7.7 5.1-13.8 5.1-1.8 0-1.8 0-3.7 0-1.9 0-1.9 0-3.9 0q-2 0-4 0-5.3 0-10.6 0-5.4 0-10.8-0.1-10.6 0-21.2 0 1.4-1.7 2.8-3.3c0.8-0.9 0.8-0.9 1.6-1.9 2.5-2.8 5.1-5.4 7.7-8.1 0.8-0.7 0.8-0.7 1.6-1.5 2.6-2.6 5.2-5.1 8.3-7.2q-0.9-3.7-1.8-7.4-0.3-1.1-0.6-2.2c-1.2-4.8-2.5-9.6-4.2-14.3-0.5-2.6-0.1-4.5 0.6-7.1 3 0 3 0 5.1 1.7q1.1 1.2 2.3 2.5c1.3 1.2 1.3 1.2 2.6 2.6q1.3 1.3 2.7 2.7 1.3 1.4 2.7 2.7 3.3 3.4 6.6 6.8 2-1.5 4-3c-1.5-3.4-3.3-5.5-5.9-8.1q-1.1-1.1-2.3-2.3-1.2-1.2-2.4-2.4c-1.2-1.1-1.2-1.1-2.5-2.4q-2.9-2.9-5.9-5.8c1.4-3.7 3-6.7 5.3-10 3.9-6.1 6.8-12.4 9.7-19 3.3 0 6.6 0 10 0 0-2.3 0-4.6 0-7-9.6 0-19.1 0-29 0 0-2.6 0-5.3 0-8-2.3 0-4.6 0-7 0 0 2.6 0 5.3 0 8-3.3 0-6.6 0-10 0q-1.9-6-3.7-12.1c-0.6-1.6-0.6-1.6-1.1-3.3-1.9-6.2-3.7-12.3-5.3-18.5q-0.3-1.1-0.6-2.1-0.6-2.5-1.3-5z"/>
	<path class="s0" d="m93 73c8.6 0 17.2 0 26 0-1.4 8.4-5.3 15.6-11 22-3.1-0.3-4-1-6-3.4q-1-1.5-2.1-3.1-1-1.5-2-3c-1.9-3.5-1.9-3.5-4.9-12.5z"/>
	<path class="s0" d="m76 141c8.3 0 16.5 0 25 0-1.8 3.7-2.6 4.8-5.6 7.3-4.4 3.6-8.4 7.6-12.4 11.7-2-1-2-1-3.3-4.3q-0.7-2-1.3-4.1-0.4-1-0.7-2.1c-1-2.9-1.7-5.4-1.7-8.5z"/>
</svg>
