<svg version="1.2" xmlns="http://www.w3.org/2000/svg" viewBox="0 0 160 160" width="160" height="160">
	<title>heymelody-svg</title>
	<style>
		.s0 { fill: #19efe9 } 
		.s1 { fill: #18fddc } 
		.s2 { fill: #19e5fa } 
		.s3 { fill: #18fde1 } 
	</style>
	<path class="s0" d="m107 13c9.8 8.1 17 18.8 18.3 31.7q0.1 4.5 0 9c0 1.7 0 1.7 0 3.4q0 5.5 0 11 0 3.9 0 7.7 0 9.1-0.1 18.1 0 10.4 0 20.7-0.1 21.2-0.2 42.4-1.9 0-3.8 0c-1.1 0.1-1.1 0.1-2.1 0.1-11.4-0.4-20.9-7-28.9-14.5-10.7-11.4-12.8-25.1-12.8-40.3q0-2.2-0.1-4.4 0-5.7 0-11.4-0.1-5.8-0.1-11.7-0.1-11.4-0.2-22.8c-3 0.3-3 0.3-6 1-1.7 3.3-1.2 7-1.3 10.7q0 1.3 0 2.6-0.2 5.5-0.3 11.1 0 4-0.1 8 0 1.3-0.1 2.6c-0.1 5.9-0.1 5.9-1.2 7-7.8 0.7-14.3-3.7-20.3-8.4-9.9-9.6-15.6-21.5-16.1-35.3 0.3-12.9 4.8-24 13.4-33.6 17.4-16.5 42.3-18.3 62-4.7z"/>
	<path class="s1" d="m63 7c-1 3-1 3-3.9 4.7-3.1 1.3-3.1 1.3-6.1 1.3q-0.4 0.8-0.7 1.7c-1.6 2.8-3.5 4.7-5.9 6.9-3.1 2.9-3.1 2.9-5.4 6.4q-1 0-2 0-0.5 1.5-1 3-0.5-1-1-2c5.2-8.1 14.9-22 26-22zm-27 24q0.5 1.5 1 3-1 1-2 2 0.5-2.5 1-5zm-2 5c1.2 4 0.7 6.9 0 11q-0.3 1.9-0.6 3.9-0.2 1.5-0.4 3.1-0.5 0-1 0c-0.2-6.4 0.2-11.8 2-18z"/>
	<path class="s2" d="m85 134q1.5 0.5 3 1 0 1.5 0 3 1.5 0.5 3 1 1.7 1.8 3.4 3.5c2.6 2.4 5.6 4.3 8.6 6.2 2 1.3 2 1.3 4 3.3q-1.5 0.5-3 1c-7.1-3.8-14.9-9.6-18.4-16.9q-0.3-1.1-0.6-2.1z"/>
	<path class="s3" d="m76 5c-2 2-2 2-4.6 2.1q-1.2 0-2.4-0.1-0.5-1-1-2c3.3-0.8 4.7-1.1 8 0zm-12 1q2 0 4 0 0 1 0 2-2-0.5-4-1 0-0.5 0-1z"/>
</svg>
