<svg version="1.2" xmlns="http://www.w3.org/2000/svg" viewBox="0 0 156 156" width="156" height="156">
	<title>heymelody (3)-svg</title>
	<style>
		.s0 { fill: #19efe9 } 
		.s1 { fill: #18fddc } 
		.s2 { fill: #19e5fa } 
		.s3 { fill: #18fde1 } 
	</style>
	<path class="s0" d="m102.3 11.5c9.9 8 17.1 18.7 18.4 31.6q0.2 4.5 0.1 9c0.1 1.7 0.1 1.7 0.1 3.4q0 5.5 0 11 0 3.9 0 7.7 0 9.1 0 18.1 0 10.4 0.1 20.7 0 21.2 0 42.4-1.8 0.1-3.8 0.1c-1 0-1 0-2.1 0-11.4-0.3-20.9-6.9-29-14.3-10.7-11.4-12.9-25.1-13-40.3q0-2.1 0-4.3-0.1-5.7-0.2-11.4 0-5.9-0.1-11.7-0.2-11.4-0.3-22.9c-3 0.4-3 0.4-6 1.1-1.7 3.3-1.2 7-1.2 10.7q-0.1 1.3-0.1 2.6-0.1 5.5-0.1 11.1-0.1 4-0.2 8 0 1.3 0 2.6c-0.1 5.9-0.1 5.9-1.2 7-7.8 0.7-14.3-3.6-20.4-8.3-9.9-9.6-15.7-21.4-16.2-35.2 0.2-12.9 4.7-24.1 13.2-33.7 17.3-16.6 42.2-18.5 62-5z"/>
	<path class="s1" d="m58.2 5.7c-0.9 3-0.9 3-3.8 4.7-3.1 1.3-3.1 1.3-6.1 1.4q-0.4 0.8-0.7 1.7c-1.6 2.8-3.5 4.7-5.8 6.9-3.2 2.9-3.2 2.9-5.5 6.4q-0.9 0-2 0-0.4 1.5-0.9 3-0.5-0.9-1-2c5.1-8.1 14.8-22 25.8-22.1zm-26.8 24.1q0.5 1.5 1 3-1 1-2 2.1 0.5-2.5 1-5.1zm-2 5.1c1.2 3.9 0.7 6.9 0 11q-0.2 1.9-0.5 3.9-0.2 1.5-0.4 3.1-0.5 0-1 0c-0.3-6.4 0.1-11.9 1.9-18z"/>
	<path class="s2" d="m80.9 132.6q1.5 0.5 3 1 0 1.5 0 3 1.5 0.5 3 1 1.8 1.7 3.5 3.5c2.6 2.4 5.6 4.2 8.6 6.1 2 1.3 2 1.3 4 3.3q-1.5 0.5-3 1c-7.1-3.7-14.9-9.5-18.5-16.8q-0.3-1-0.6-2.1z"/>
	<path class="s3" d="m71.2 3.6c-1.9 2-1.9 2-4.6 2.2q-1.1-0.1-2.3-0.1-0.5-1-1.1-2c3.3-0.8 4.7-1.1 8-0.1zm-12 1.1q2 0 4 0 0 1 0.1 2-2-0.5-4.1-1 0-0.5 0-1z"/>
</svg>
