<svg version="1.2" xmlns="http://www.w3.org/2000/svg" viewBox="0 0 128 128" width="128" height="128">
	<title>svgviewer-output (13) (1)-svg</title>
	<style>
		.s0 { fill: #000000;stroke: #000000;stroke-width: .6 } 
	</style>
	<g id="surface1">
		<path fill-rule="evenodd" class="s0" d="m126.1 89.8c-0.5 10-2.8 18.9-10.1 26.2-7.3 7.3-16.2 9.6-26.2 10.1-8.6 0.5-17.2 0.4-25.8 0.4-8.6 0-17.2 0.1-25.8-0.4-10-0.5-18.9-2.8-26.2-10.1-7.3-7.3-9.6-16.2-10.1-26.2-0.5-8.6-0.4-17.2-0.4-25.8 0-8.6-0.1-17.2 0.4-25.8 0.5-10 2.8-18.9 10.1-26.2 7.3-7.3 16.2-9.6 26.2-10.1 8.6-0.5 17.2-0.4 25.8-0.4 8.6 0 17.2-0.1 25.8 0.4 10 0.5 18.9 2.8 26.2 10.1 7.3 7.3 9.6 16.2 10.1 26.2 0.5 8.6 0.4 17.2 0.4 25.8 0 8.6 0.1 17.2-0.4 25.8zm-30-25.8c0-17.7-14.4-32.1-32.1-32.1-17.8 0-32.1 14.4-32.1 32.1 0 17.7 14.3 32.1 32.1 32.1 17.7 0 32.1-14.4 32.1-32.1zm-11.3 0c0 11.5-9.3 20.8-20.8 20.8-11.5 0-20.9-9.3-20.9-20.8 0-11.5 9.4-20.8 20.9-20.8 11.5 0 20.8 9.3 20.8 20.8zm20.1-33.4c0-4.1-3.4-7.5-7.5-7.5-4.2 0-7.5 3.4-7.5 7.5 0 4.2 3.3 7.5 7.5 7.5 4.1 0 7.4-3.3 7.5-7.5z"/>
	</g>
</svg>
