<svg xmlns="http://www.w3.org/2000/svg" width="432" height="432"><path d="M279.688 135.688c4.148.39 6.11 1.692 9.312 4.312 2.184 3.4 2.584 6.85 3.125 10.813l.508 3.582c.931 9.145.931 9.145-.695 13.355-4.97 5.77-13.09 6.111-20.198 7.06l-3.372.474c-3.662.512-7.325 1.01-10.99 1.509l-7.637 1.063q-9.008 1.253-18.019 2.486c-6.842.938-13.684 1.887-20.525 2.837Q190.101 186.107 169 189l1.829.01q22.035.121 44.068.278 10.655.076 21.31.134 10.281.055 20.561.136 3.926.029 7.85.045c3.661.017 7.322.046 10.982.078l3.29.007c1 .01 1.999.022 3.029.034l2.623.016c4.08.435 6.762 1.604 9.738 4.417 2.128 3.52 2.284 6.376 2.238 10.37l.02 2.244c.018 2.44.007 4.878-.007 7.317q.005 2.554.012 5.107.008 5.349-.022 10.698c-.022 4.558-.01 9.116.015 13.674.014 3.516.01 7.032 0 10.548q-.005 2.52.01 5.04c.01 2.355-.006 4.708-.028 7.063l.024 2.082c-.11 6.338-2.393 10.61-6.917 15.014-6.651 4.276-13.196 3.98-20.853 3.963l-3.723.015q-5.035.017-10.072.012-4.212 0-8.424.008-9.94.016-19.881.006a5113 5113 0 0 0-20.477.027q-8.807.026-17.613.02c-3.502-.001-7.004.001-10.505.015-3.907.015-7.813.006-11.72-.006l-3.493.023c-7.568-.05-12.667-.707-18.614-5.707-4.482-5.354-5.692-9.932-5.635-16.807l-.016-2.403q-.015-2.576-.01-5.151a968 968 0 0 0-.028-8.224c-.037-5.847-.05-11.694-.061-17.54-.014-7.645-.04-15.29-.094-22.934l-.016-2.787c-.083-11.571-.438-22.863-2.612-34.268-1.01-5.582-.597-8.583 2.222-13.574 3.813-3.23 7.983-3.684 12.813-4.187l2.1-.249c1.694-.198 3.39-.383 5.087-.564-.58 6.335-2.068 11.973-4.062 18L151 180l22-3 8-27 8-1.437 2.469-.448c4.831-.86 9.656-1.544 14.531-2.115-1.564 9.696-4.795 18.75-8 28l1.924-.434c6.989-1.554 13.939-2.14 21.076-2.566l.805-3.871c1.148-5.165 2.689-10.161 4.32-15.191l.84-2.624q1.012-3.159 2.035-6.314 4.56-.758 9.125-1.5l2.594-.434 2.539-.41 2.317-.38c2.792-.318 5.615-.276 8.425-.276l-8 27c6.073-.984 6.073-.984 12.146-1.975l2.307-.369 2.349-.38C265 164 265 164 269 164l.313-2.852c.713-4.985 2.213-9.718 3.687-14.523l.828-2.77c2.352-7.76 2.352-7.76 5.86-8.167M155 190v1h6v-1zm52 27c-1.45 1.222-1.45 1.222-1.114 4.877q0 2.595.016 5.19l.005 2.753c.005 2.914.018 5.828.03 8.743q.008 2.954.014 5.912.017 7.262.049 14.525l4 2 2.387-1.836L236 241c-.297-3.276-.721-4.713-3.047-7.105l-2.703-2.083-2.988-2.32-1.6-1.216a256 256 0 0 1-5.142-4.08q-1.728-1.38-3.458-2.758l-1.645-1.34C212.229 217.605 211.212 217 207 217"/></svg>
