<svg version="1.2" xmlns="http://www.w3.org/2000/svg" viewBox="0 0 125 125" width="125" height="125">
	<title>svgviewer-output (12) (1)-svg</title>
	<defs>
		<clipPath clipPathUnits="userSpaceOnUse" id="cp1">
			<path d="m42 24h64.45v101.5h-64.45z"/>
		</clipPath>
		<clipPath clipPathUnits="userSpaceOnUse" id="cp2">
			<path d="m17.63 16h31.37v49h-31.38z"/>
		</clipPath>
		<clipPath clipPathUnits="userSpaceOnUse" id="cp3">
			<path d="m28 0.5h48v33.5h-48z"/>
		</clipPath>
	</defs>
	<style>
		.s0 { fill: #000000 } 
		.s1 { opacity: .6;fill: #000000 } 
		.s2 { opacity: .8;fill: #000000 } 
	</style>
	<g id="surface1">
		<g id="Clip-Path" clip-path="url(#cp1)">
			<g>
				<path class="s0" d="m101.4 24.1c2.7 4.8 4.2 10 4.8 15.5 1.2 11.9-1.7 22.8-8.3 32.8-4 6.1-8.7 11.6-13.2 17.2-3.8 4.8-7.5 9.6-10.9 14.7-3.1 4.9-5.3 10.3-7 15.9-0.3 1.2-0.7 2.3-1.4 3.4-1.6 2.6-5.1 2.5-6.7-0.1-0.4-0.8-0.7-1.6-0.9-2.4-2.6-10.1-8-18.8-14.4-26.8-0.4-0.5-0.7-0.9-1-1.4q14.6-17 29.1-34.1c0.4-0.4 1-0.6 0.8-1.3 0.4 0.1 0.5-0.1 0.6-0.4q0.2-0.2 0.4-0.4c1.2-1.2 2.3-2.5 3.3-3.9 0.3-0.1 0.4-0.3 0.4-0.6q0.3 0 0.3-0.3h-0.1c2.7-2.4 4.8-5.3 7.1-8 5.7-6.6 11.4-13.2 17.1-19.8z"/>
			</g>
		</g>
		<path class="s1" d="m72.3 57.5c0.2 0.7-0.4 0.9-0.8 1.3q-14.5 17.1-29.1 34.1c-6.3-7.7-13-15.1-18.1-23.8-0.8-1.3-1.4-2.8-2.1-4.2q1.7-2.1 3.5-4.1c5.1-6 10.2-12 15.3-18 2-2.3 3.9-4.8 6.1-6.9 0.1 0.6-0.4 1-0.6 1.6-2.3 5.7-1.9 11.3 1.9 16.3 3.7 5.1 8.9 7.3 15.2 6.8 3.3-0.2 6-1.5 8.7-3.1z"/>
		<path class="s1" d="m101.4 24.1c-5.7 6.6-11.4 13.2-17.1 19.8-2.3 2.7-4.4 5.6-7.1 8-0.1-0.6 0.3-1 0.5-1.4 4.5-10.4-3.1-22.4-14.3-23-4.5-0.2-8.4 1-12 3.5-0.1-0.7 0.5-1 0.8-1.4q4-4.6 8-9.3c3.3-3.9 6.7-7.8 10-11.7 1.6-2 3.6-3.8 4.9-6 4.4 1 8.4 3.1 12.1 5.6 6 4.1 10.9 9.3 14.2 15.9z"/>
		<g id="Clip-Path" clip-path="url(#cp2)">
			<g>
				<path class="s0" d="m47.1 35.9c-2.2 2.1-4 4.6-6.1 6.9-5.1 6-10.2 12-15.3 18q-1.8 2-3.5 4.1c-7.2-16.9-6.2-32.9 5.1-47.8 0.3-0.4 0.6-0.6 0.8-0.9q10.5 8.6 20.9 17.2-0.8 1.1-1.6 2.1-0.1 0.2-0.3 0.4z"/>
			</g>
		</g>
		<g id="Clip-Path" clip-path="url(#cp3)">
			<g>
				<path class="s2" d="m49 33.4q-10.4-8.6-20.9-17.2c4.4-5.4 9.9-9.4 16.3-12.1 9.8-4.1 19.8-4.7 30-1.8 0.3 0 0.5 0.2 0.7 0.3-1.3 2.2-3.3 4-4.9 6-3.3 3.9-6.7 7.8-10 11.7q-4 4.7-8 9.3c-0.3 0.4-0.9 0.7-0.8 1.4q-1.2 1.2-2.4 2.4z"/>
			</g>
		</g>
	</g>
</svg>
