<svg version="1.2" xmlns="http://www.w3.org/2000/svg" viewBox="0 0 178 178" width="120" height="120">
	<title>one_hand_operation (2)-svg</title>
	<style>
		.s0 { fill: #ffffff } 
	</style>
	<path class="s0" d="m42.8 4.8q1.2 0 2.4 0 3.9 0 7.8 0 2.7 0 5.5 0 5.7 0 11.4 0 7.4-0.1 14.7-0.1 5.6 0 11.3 0 2.7 0 5.4 0 3.8-0.1 7.5-0.1c1.1 0 1.1 0 2.3 0 5.4 0.1 9.5 1.2 13.5 4.9 3.7 4.9 4.5 7 4.5 13 0 2 0 2 0 4q0 2.1 0 4.1 0 2.1-0.1 4.2 0 5.1 0 10.2-2.5 0.5-5 1c0 21.4 0 42.9 0 65-4.4-1.8-5.8-2.4-8.9-5.6-1-1.1-1-1.1-2.1-2.2-1.9-2.1-3.7-4.2-5.5-6.4-4.3-5-8.8-8-15.1-9.8-4.2 0-6.1 0.5-9.4 3-2.6 4-3.4 7.8-2.6 12.4 1.7 6.1 5.3 11.1 9.5 15.7 5.8 6.4 8.5 13.3 11.3 21.4 2.9 8.5 2.9 8.5 8.8 14.9q1 0.5 2 0.9 1 0.5 2 0.9c2 0.8 3.9 1.3 6 1.8q0 1 0 2c-3.1 1.6-6.4 1.2-9.8 1.2q-1.3 0-2.5 0-4 0-8.1 0c-1.3 0-1.3 0-2.7 0.1q-7.3 0-14.6 0-7.5 0-15.1 0.1-5.7 0-11.5 0-2.8 0-5.6 0.1-3.9 0-7.7 0-1.2 0-2.3 0c-5.2 0-8.1-1.3-12.1-4.5-4-4.4-5.1-7.4-5.1-13.3q-0.1-1.6-0.1-3.3 0-1.8 0-3.6 0-1.9 0-3.9 0-6.3 0-12.6 0-2.1-0.1-4.3 0-10.2 0-20.4 0-11.8-0.1-23.5 0-9.1 0-18.2 0-5.5-0.1-10.9 0-6 0-12.1 0-1.8 0-3.6c0-6.9 0.8-11.4 4.5-17.3 5-4.8 9.1-5.2 15.8-5.2z"/>
	<path class="s0" d="m128 49q3 0 6 0c3.6 4.1 5.3 9 7 14.1q0.5 1.2 0.9 2.4 1.4 4.1 2.7 8.1 0.5 1.4 1 2.8c27.5 81.1 27.5 81.1 26.4 94.6-2.2 2.3-3.6 2.9-6.7 3.4-1.5 0-1.5 0-3 0q-1.7 0-3.3 0-1.7 0-3.5 0c-1.7 0-1.7 0-3.5 0q-1.6 0-3.3 0-1.5 0-3 0c-3.1-0.5-4.5-1.3-6.7-3.4-0.8-2.3-0.8-2.3-1.2-4.9-1.2-4.1-1.5-4.9-5-7.4-2.8-1.2-5.8-2-8.7-2.8q-1.1-0.3-2.1-0.7-2.1-0.6-4.3-1.1c-5-1.4-8.1-3.5-10.7-8.1-1.5-3.4-2.7-6.8-3.9-10.3-2.7-7.7-5.6-13.6-11.1-19.7q-2-2.7-3.9-5.4-0.8-1.3-1.7-2.5c-2.9-4.3-2.9-8-2.4-13.1 0.9-2.6 0.9-2.6 3-4 3.2-1 5.7-0.9 9 0 4.4 2.9 7.9 6.8 11.6 10.7q1.6 1.7 3.3 3.4 1.6 1.7 3.2 3.5c4.6 4.8 6.8 5 13.9 7.4 0-22.1 0-44.2 0-67z"/>
</svg>
