<svg version="1.2" xmlns="http://www.w3.org/2000/svg" viewBox="0 0 153 153" width="153" height="153">
	<title>quickswitch-svg-svg</title>
	<style>
		.s0 { fill: #1db2fe } 
		.s1 { fill: #2153fe } 
		.s2 { fill: #2d98fe } 
		.s3 { fill: #1e90fe } 
		.s4 { fill: #1bf0fe } 
		.s5 { fill: #1cc7fe } 
		.s6 { fill: #1c9ffe } 
		.s7 { fill: #34befe } 
	</style>
	<path class="s0" d="m74.3 0.6q4.1 0 8.2 0 2.6 0 5.2 0 1.2 0 2.4 0c8.1 0.1 15.6 2.2 21.9 7.4 3 3.4 5.6 6.7 7 11q1.2 0.1 2.3 0.3c9.9 1.3 15.9 4.1 22.4 11.6 5.1 8.3 4.8 16.8 4.7 26.3q0 2.3 0 4.7 0.1 5 0 9.9 0 6.3 0.1 12.6 0 4.9 0 9.8 0 2.3 0 4.7c0.1 10.5-0.4 19.7-7.6 28-5.2 4.6-11.4 7.1-18.3 7.3-3.6 0.4-3.6 0.4-4.7 2.4q-0.9 2.1-1.8 4.2c-2.7 5.4-7.5 8.8-13.1 10.9-7.6 2.1-15.5 1.7-23.3 1.7q-4 0-8.1 0c-11.7 0-21.9 0-31-8.4-1.7-2.1-2.4-3.8-3.4-6.3-0.7-2.1-0.7-2.1-2.2-3.7-3-0.9-5.9-1.2-9-1.5-6.7-1.1-11.3-5.4-15.7-10.4-5.1-8.3-4.8-16.8-4.7-26.3q0-2.3 0-4.7-0.1-5 0-9.9 0-6.3-0.1-12.6 0-4.9 0-9.8 0-2.3 0-4.7c-0.1-10.5 0.4-19.7 7.6-28 5.2-4.6 11.4-7.1 18.3-7.4 3.6-0.3 3.6-0.3 4.7-2.3q0.9-2.1 1.8-4.2c2.7-5.4 7.5-8.8 13.1-10.9 7.6-2.1 15.5-1.7 23.3-1.7z"/>
	<path class="s1" d="m119 20c8.9 0 15.2 1.1 21.9 7.1 7.7 8.9 7.7 19 7.6 30.3q0 2.3 0 4.7 0.1 4.9 0 9.9 0 6.3 0 12.5 0.1 4.9 0 9.8 0 2.3 0 4.6c0.1 10.6-0.5 19.7-7.6 28-6.7 6-13 7.1-21.9 7.1 0-37.6 0-75.2 0-114z"/>
	<path class="s2" d="m35 20q0 1.3 0 2.6c-0.1 25.8 0.1 51.6 0.5 77.5 0 1.2 0 1.2 0 2.5q0.3 15.7 0.5 31.4-2.2 0-4.3 0-1.2 0.1-2.5 0.1c-6.1-0.2-11.6-3.2-16.1-7.2-7.7-8.9-7.7-19-7.6-30.3q0-2.3 0-4.7-0.1-4.9 0-9.9 0-6.3 0-12.5-0.1-4.9 0-9.8 0-2.3 0-4.6c-0.1-10.6 0.5-19.7 7.6-28 6.5-5.9 13.4-7.3 21.9-7.1z"/>
	<path class="s3" d="m116 135q1 0.5 2 1c-1.7 5.6-5.1 10.1-10 13.3-3.7 2-6.7 3.2-11 2.7q-0.5-1-1-2 0.9-0.2 1.9-0.4c6.8-1.7 11.5-4.3 16.1-9.6 1.5-2.7 1.5-2.7 2-5z"/>
	<path class="s4" d="m57 1c5.3 0 10.6 0 16 0q-1.5 0.5-3 1 0 1 0 2c-4 0-7.9 0-12 0q-0.5-1.5-1-3z"/>
	<path class="s5" d="m102 3c5.4 1.3 9.4 3.8 13 8 0.9 3.4 0.9 3.4 1 6q-0.8-1.1-1.6-2.2c-3.5-4.1-7.3-7.7-12.4-9.8q0-1 0-2z"/>
	<path class="s6" d="m36 135q1 2 2 4 1 0 2 0 0 1.5 0 3 1 0.4 1.9 0.8c2.1 1.2 2.1 1.2 2.9 3.3 0.1 1 0.1 1 0.2 1.9-3.9-3-6.8-5.5-9-10q0-1.5 0-3z"/>
	<path class="s7" d="m19 24c-1.6 3.8-4 6.3-7 9q-1 0-2 0c1.5-3.8 4.6-9 9-9z"/>
</svg>
