<svg version="1.2" xmlns="http://www.w3.org/2000/svg" viewBox="0 0 160 160" width="160" height="160">
	<title>quickswitch (1)-svg</title>
	<style>
		.s0 { fill: #ffffff } 
	</style>
	<path class="s0" d="m56.1 5.6c1.8 0 1.8 0 3.7-0.1q1.9 0 4 0 2 0 4.1 0 4.3 0 8.6 0 5.5 0 11-0.1 4.3 0 8.5 0 3.1 0 6.1 0c9.1 0 9.1 0 13.1 2.8 2.9 4.5 4 8 4.1 13.3q0 1.6 0 3.3 0 1.8 0 3.6 0 1.9 0 3.8 0 5.2 0 10.4 0 4.3 0 8.6 0 10.2 0 20.4 0 10.5 0 21 0.1 9 0.1 18.1 0 5.4 0 10.7 0 6.1 0 12.1 0 1.7 0 3.6c-0.1 7.1-0.5 12-5.8 17.2-5.5 2.6-10.7 2.3-16.7 2.2-1.9 0-1.9 0-3.8 0q-4 0-8 0-5.1-0.1-10.2 0-4.9 0-9.8-0.1-1.9 0-3.7 0c-11-0.1-11-0.1-15.4-3.4-2.6-3.7-3.4-6.2-3.4-10.7q0-1.6 0-3.4 0-1.8 0-3.7 0-1.9 0-3.9 0-5.4 0-10.7 0-5.6 0-11.2 0-9.4 0-18.8 0-10.8 0-21.6 0-9.4 0-18.7 0-5.5 0-11.1 0-6.2 0-12.4c0-1.9 0-1.9 0-3.7 0-1.7 0-1.7 0-3.4q0-1.5 0-3c0.6-4 2.4-6.7 5.2-9.5 2.9-1.6 5-1.6 8.3-1.6z"/>
	<path class="s0" d="m15.5 13.5q1.2 0 2.4 0c1.3 0 1.3 0 2.6 0q1.3 0 2.6 0c4.1 0 6.4 0.2 9.9 2.3 3 3.3 3.1 5.9 3.1 10.1 0 1.5 0 1.5 0.1 3q0 1.7 0 3.4 0 1.7 0 3.5 0 5.8 0 11.6 0 3 0 6 0 8.3 0 16.7 0 10.8 0.1 21.6 0 8.3 0 16.7 0 5 0 9.9 0.1 5.6 0.1 11.2 0 1.6 0 3.3c-0.1 9.4-0.1 9.4-3.4 13.2-4 2.7-7.1 2.3-11.9 2.3-1.2 0-1.2 0-2.4 0.1-4.8 0-7.8-0.4-11.7-3.4-1.7-1.7-1.1-3.6-1.2-5.9q0-1.6 0-3.2 0-1.7 0-3.5 0-1.8 0-3.7-0.1-6.1-0.1-12.2 0-2.1 0-4.2 0-8.7 0-17.5-0.1-12.5-0.1-25-0.1-8.8-0.1-17.6 0-5.2-0.1-10.5 0-5.8 0-11.7 0-1.7 0-3.5c0-7.9 0-7.9 3-11.2 2.6-1.3 4.2-1.8 7.1-1.8z"/>
	<path class="s0" d="m141 13.4q1.3 0 2.7 0 1.3 0 2.6 0 1.2 0 2.4 0c3.7 1 5 2.5 7.3 5.6 0.8 3.9 0.7 7.8 0.6 11.8q0 1.8 0.1 3.6 0 4.9-0.1 9.8 0 5.1 0 10.2 0 8.6 0 17.3 0 9.9 0 19.8 0 9.6 0 19.2 0 4.1 0 8.1 0 5.7-0.1 11.4 0 1.7 0.1 3.4c-0.1 7.6-0.1 7.6-2.5 11.6-2.6 2.2-3.8 2.4-7.2 2.4q-1.4 0-2.9 0-1.5 0-3 0-1.5 0-3 0c-7.4-0.1-7.4-0.1-10.1-2.3-2.3-2.8-2.4-4-2.4-7.5q0-1.6-0.1-3.2 0.1-1.7 0.1-3.5c0-1.8 0-1.8-0.1-3.6q0-5 0-10 0-4.2 0-8.3 0-9.9 0-19.7 0-10.1 0-20.3 0-8.7 0-17.4 0-5.2-0.1-10.3 0-5.8 0.1-11.6 0-1.7-0.1-3.5c0.1-7.8 0.1-7.8 3.1-11.1 4.2-2.1 8-1.9 12.6-1.9z"/>
</svg>
