<svg version="1.2" xmlns="http://www.w3.org/2000/svg" viewBox="0 0 204 204" width="204" height="204">
	<title>svgviewer-output (16)-svg</title>
	<style>
		.s0 { fill: #000000;stroke: #000000 } 
		.s1 { opacity: .5;fill: #000000;stroke: #000000 } 
	</style>
	<path class="s0" d="m102.7 152.8q42.6 0 85.2 0c6.4-0.1 6.9-0.7 4.9-6.9-3.2-9.9-9.2-17.9-17.3-24-3.3-2.5-4.6-5.2-4.5-9.2 0.1-8.3 0.1-16.7-0.1-25.1-0.6-28.2-18.3-52.8-45-62.2-4.2-1.5-6.4-3.2-6.5-8.2-0.2-8.8-7.5-15.1-16.2-15.2-9-0.1-16.5 6.2-16.8 15.2-0.1 5-2.3 6.6-6.5 8.2-23.7 9-38.6 26-43.9 51-2.5 11.9-0.9 24.2-1.1 36.3-0.1 4-1.3 6.7-4.5 9.2-8.1 6-13.9 13.8-17.2 23.5-2.2 6.7-1.8 7.4 5.2 7.4q42.1 0 84.3 0z"/>
	<path class="s1" d="m84.7 183.8c0-4.8 1.9-9.4 5.4-12.8 3.4-3.4 8-5.4 12.8-5.4 4.8 0 9.5 2 12.9 5.4 3.4 3.4 5.3 8 5.3 12.8 0 4.8-1.9 9.5-5.3 12.9-3.4 3.4-8.1 5.3-12.9 5.3-4.8 0-9.4-1.9-12.8-5.3-3.5-3.4-5.4-8.1-5.4-12.9z"/>
</svg>
