<svg version="1.2" xmlns="http://www.w3.org/2000/svg" viewBox="0 0 159 159" width="159" height="159">
	<title>samsung_theme_park-svg-svg</title>
	<style>
		.s0 { fill: #fe6a1d } 
		.s1 { fill: #feca27 } 
		.s2 { fill: #1aecb7 } 
		.s3 { fill: #d528fe } 
		.s4 { fill: #fe9700 } 
		.s5 { fill: #feeb32 } 
		.s6 { fill: #fe9102 } 
		.s7 { fill: #12ddbf } 
		.s8 { fill: #f45341 } 
		.s9 { fill: #fe8b07 } 
		.s10 { fill: #19f4be } 
		.s11 { fill: #31fdac } 
		.s12 { fill: #fe9200 } 
	</style>
	<path fill-rule="evenodd" class="s0" d="m109.2 12.1c5.8 2.7 11.7 2.2 18 1.9 11.7-0.5 11.7-0.5 16.4 1.7 4.3 4.1 5.5 6.7 5.7 12.7q0 3.1 0 6.2-0.1 1.5-0.1 3.1c0 7.7 0 7.7-0.8 10.5-0.6 2.5 0.2 3.7 1.4 6 7.6 18 6.4 37.6 0 55.6-5.3 12.6-13.4 22.7-23.7 31.4-3.9 3.3-4.9 5.8-6.1 10.8-3.2 3.3-4.8 4.8-9.3 5.6q-1.8 0-3.7 0-1 0.1-2.1 0.1-3.3 0-6.6 0-2.3 0-4.6 0-4.9 0-9.7 0-6.2-0.1-12.4 0-4.8 0-9.6 0-2.3 0-4.6 0-3.2 0-6.4-0.1-1.8 0-3.7 0c-4.4-0.8-6.1-2.4-9.3-5.6-0.9-2.8-0.9-2.8-1-5q-0.8 0-1.7 0.1-3.9 0.1-7.9 0.1-1.3 0.1-2.7 0.2c-6.1 0-9.8-0.6-14.7-4.4-4.2-5.5-4.6-9.9-4.4-16.6 0-1.3 0-1.3 0-2.5 0.1-4.5 0.6-7.8 2.4-11.9-0.4-2.1-0.8-4.1-1.3-6.2-5.2-20.8-5-41.4 5.3-60.8 11.1-18.5 26.7-30.7 47.4-37 16.1-4 34.8-3.6 49.8 4.1zm-21.2 13.9c-3.7 3.7-2.7 9.5-2.8 14.5q0 2.1-0.1 4.2c-0.3 4.6-0.3 8.8 0.9 13.3 2.5 2.7 5.1 4.3 8.2 6.1 3.2 2.2 4 3.9 5.5 7.4 1.2 2.6 1.2 2.6 3.3 4.5 5.3 1.3 10.4 0.9 15.9 0.6q2.2-0.1 4.4-0.1 5.3-0.2 10.7-0.5c1.2-4.1 0.5-6.4-0.8-10.5q-0.5-1.7-1.1-3.4-0.5-1.5-1.1-3.1-0.4-1.2-0.8-2.4c-1.1-1.9-1.1-1.9-3.6-2.1-1.4 0-1.4 0-2.8 0-5.1-0.3-8-1-11.8-4.5-2.8-3.9-3.2-6.3-3.1-11-0.2-4.5-0.2-4.5-2.8-7.8-5.4-2.8-12-5-18.1-5.2zm-45 12q-1.6 1.1-3.2 2.3c-9.4 9-15.8 21.6-16.8 34.7 2.7 2.7 10.1 1.6 13.9 1.7q2.2 0 4.4 0.2c4.8 0.3 9 0.3 13.7-0.9 2.5-2.5 3.8-5 5.3-8.2 2-3.3 3.7-4.2 7.1-6 3.4-2.2 4.4-3.1 5.4-7.1 0.3-4.1 0.2-8 0-12q-0.1-2.1-0.1-4.2c0.3-6.9 0.3-6.9-2.7-12.5-9.9 0-19.5 6-27 12zm-18 53c-1 4.2-0.8 6.3 0.9 10.3q0.6 1.3 1.2 2.7 0.4 1 0.9 2 1 0 2 0.1c5.7 0.3 9.7 0.9 14 4.9 1.8 3.6 1.8 3.6 3 7q1 1.5 2 3 3-5.1 6-10.3c0.9-1.5 0.9-1.5 1.7-3q0.8-1.4 1.7-2.8 0.7-1.3 1.5-2.6c1.3-2.3 1.3-2.3 1.1-5.3-1.4-3.3-1.4-3.3-4-6-2.8-0.6-4.6-0.7-7.4-0.6q-1 0-2.1 0-3.4 0.1-6.7 0.2-2.3 0.1-4.6 0.1-5.6 0.1-11.2 0.3zm73.9 1.8c-1.3 2.1-2.2 3.9-2.9 6.2q0.8 1.4 1.7 2.9 7.3 12 14.3 24.1c8.4-2.8 14.1-11.3 18-19 3.5-7.8 3.5-7.8 3-16q-6.7-0.3-13.4-0.4-2.3-0.1-4.6-0.2c-8.6-0.8-8.6-0.8-16.1 2.4z"/>
	<path class="s1" d="m82 81c5.4 2 7.6 4.9 10.3 9.8q1.2 2 2.3 4 0.6 1.1 1.2 2.1c1.9 3.3 3.9 6.5 5.8 9.8q1.7 2.8 3.4 5.5 1.4 2.5 2.9 5c3.4 5.6 6.4 11.2 9 17.2 1.1 2.6 1.1 2.6 2.4 5 2.1 4.2 2.9 5.8 1.8 10.4-2.2 3.3-3.8 5-7.1 7.2-3.2 0.5-3.2 0.5-6.9 0.5-1 0-1 0-2 0.1q-3.4 0-6.7 0-2.3 0-4.6 0-4.9 0-9.8 0-6.2 0-12.4 0-4.8 0-9.6 0-2.3 0-4.6 0.1-3.2 0-6.4-0.1-1.8 0-3.7 0c-4.4-0.8-6.1-2.4-9.3-5.6-0.9-2.8-0.9-2.8-1-5-0.9 0-0.9 0-1.7 0.1q-3.9 0.1-7.9 0.1-1.3 0.1-2.7 0.2c-6.1 0-9.8-0.6-14.7-4.4-4.2-5.4-4.6-9.8-4.4-16.6q0-1.2-0.1-2.5c0.1-5 0.7-8.5 3.5-12.9 5.8-5.4 10.8-5.2 18.3-5.3 1.4-0.1 1.4-0.1 2.9-0.1 5.9-0.1 9.2 0.5 13.8 4.4 2.5 2.8 3.7 5.5 5 9q0.5-0.8 1-1.6 3.9-6.6 7.8-13.1 2.8-4.7 5.6-9.3c9-15.4 9-15.4 18.6-14z"/>
	<path class="s2" d="m27.3 105.7c1.4-0.1 1.4-0.1 2.9-0.1 7.1-0.1 10.4 1.2 15.6 6.1 4.1 7.9 2.7 19.7 0.1 27.8-3 3.9-6.3 7-11.2 8-2.6 0.1-5.1 0.1-7.7 0.1-1.3 0-1.3 0-2.6 0-6-0.1-9.7-0.9-14.4-4.6-4.2-5.4-4.6-9.8-4.4-16.6q0-1.2-0.1-2.5c0.1-5 0.7-8.5 3.5-12.9 5.8-5.4 10.8-5.2 18.3-5.3z"/>
	<path class="s3" d="m129 13.5q1.5 0 2.9 0c5.9 0 9.6 0.4 14.1 4.5 4.2 4.6 3.5 10.5 3.5 16.4q0 1.6 0.1 3.1c0 8.4 0 8.4-2.9 12.1-5.6 4.9-10.4 5-17.7 5.4-1.5 0.1-1.5 0.1-3 0.2-4.4 0.2-7.3 0.1-11.4-1.8-3.7-3.4-6.3-5.9-6.9-11.1q0-4.6 0.3-9.3 0.1-1.4 0.1-2.8c0.4-4.8 0.7-8.5 3.9-12.2 5.4-4.7 10.1-4.6 17-4.5z"/>
	<path class="s4" d="m36 20c-1.3 3-2.8 5-5.1 7.2q-0.9 0.9-1.9 1.8-1.9 1.9-3.8 3.7c-2.8 2.8-5.4 5.4-7.5 8.7q-0.8 1.3-1.7 2.6-1 0-2 0c2.6-7.3 13.5-24 22-24z"/>
	<path class="s5" d="m65 93q0.5 1 1 2c-1.3 3.2-3.1 6.1-4.8 9.1q-0.6 1.2-1.3 2.5c-0.7 1.2-0.7 1.2-1.4 2.4q-0.6 1.1-1.2 2.3c-1.3 1.7-1.3 1.7-4.3 2.7 2.8-7.6 7.4-14.3 12-21zm-13 21q1 1 2 2c-1.4 2.5-1.4 2.5-3 5q-1 0-2 0c1.9-4.8 1.9-4.8 3-7z"/>
	<path class="s6" d="m13 44q1 1 2 2-1.5 3-3 6-1 0-2 0c0.5-3.4 1.1-5.1 3-8zm-4 8q1 1 2 2-0.5 1.5-1 3-1 0-2 0 0.5-2.5 1-5zm-2 5c1 0.5 1 0.5 2 1q0 1 0 2-1 0-2 0 0-1.5 0-3zm-1 3q1 0.5 2 1-0.4 2-0.9 3.9-0.2 1.1-0.5 2.3c-0.6 1.8-0.6 1.8-2.6 2.8 0.7-3.3 1.3-6.6 2-10z"/>
	<path class="s7" d="m46 119c2.3 3.6 2.1 6.4 1.8 10.6q-0.2 1.7-0.3 3.5c-0.5 2.9-0.5 2.9-2.5 4.9q0-4.5-0.1-8.9 0-1.3 0-2.6 0-1.2 0-2.5 0-1.1 0-2.2c0.1-1.8 0.1-1.8 1.1-2.8z"/>
	<path class="s8" d="m142 52q0.5 1 1 2c-2.9 1.6-5.5 2.5-8.8 3.1q-1.1 0.3-2.4 0.5-0.9 0.2-1.8 0.4-0.5-2-1-4 1.2-0.1 2.3-0.2c1.5-0.1 1.5-0.1 3.1-0.2q1.5-0.2 3-0.3c2.6-0.1 2.6-0.1 4.6-1.3z"/>
	<path class="s9" d="m41 37q1 1 2 2c-1.1 0.9-1.1 0.9-2.3 1.8-2 1.7-3.9 3.3-5.7 5.2 0-3 0-3 1.3-4.6q0.8-0.8 1.7-1.6 0.8-0.8 1.7-1.6c0.6-0.6 0.6-0.6 1.3-1.2z"/>
	<path class="s10" d="m9 138c5.8 4.8 5.8 4.8 8 7-5.8-0.8-5.8-0.8-8-3q0-2 0-4z"/>
	<path class="s11" d="m9 111q1 0 2 0-0.5 1.5-1 3-1 0-2 0 0.5-1.5 1-3zm-2 3q1 0.5 2 1-1 2.5-2 5c-1-3-1-3 0-6z"/>
	<path class="s12" d="m44 14q1 0 2 0-0.5 1-1 2-0.5-1-1-2zm0 1q-0.5 1.5-1 3-1.5 0.5-3 1 0-1.5 0-3c2-1 2-1 4-1zm-7 3q1 0 2 0-0.5 1-1 2-0.5-1-1-2z"/>
</svg>
