<svg version="1.2" xmlns="http://www.w3.org/2000/svg" viewBox="0 0 191 191" width="120" height="120">
	<title>theme_park_foreground-svg</title>
	<style>
		.s0 { fill: #000000 } 
	</style>
	<path fill-rule="evenodd" class="s0" d="m127.2 9.1c3.6 1.2 7 1.1 10.7 1q2.3-0.1 4.6-0.1 3.7-0.1 7.3-0.2 3.5-0.1 7-0.1 1.1-0.1 2.2-0.1c5.6-0.1 8.5 1.3 13 4.4 4.4 5.5 5.2 9.3 4.9 16.2-0.6 18.2-0.6 18.2 4.6 35.3 8.1 18.5 5.9 41.8-0.8 60.3-4 9.7-8.9 18.2-15.7 26.2-0.9 1.1-0.9 1.1-1.9 2.3-4.8 5.7-10.2 10.2-16.1 14.7q1.2 1.5 2.5 3c1.9 2.7 3 4.8 3.2 8.1-0.7 4.1-1.6 5.4-4.8 7.9-3.7 2-7.6 1.7-11.7 1.6q-1.4 0.1-2.9 0.1-4.8 0-9.5 0-3.4 0-6.7 0-7 0-13.9 0-9-0.1-17.9 0-6.9 0-13.7 0-3.3 0-6.6 0-4.6 0-9.2-0.1-1.4 0.1-2.8 0.1c-4.3-0.1-7.1-0.4-10.6-3.1-2.4-2.6-2.4-2.6-3.1-4.7 0.3-4.3 1-6.6 3.7-9.9q-1.6 0-3.3-0.1c-14.5-0.5-14.5-0.5-19.7-4.9-4.1-5.2-5.1-9-5.1-15.4-0.2-15.3-0.2-15.3-4.6-29.7-8.5-19.4-5.2-43.8 2.1-63 8.5-20.7 26-39 46.6-47.8 20.7-8.1 47.3-12 68.2-2zm9.1 14.5c-2.5 2.2-2.5 2.2-2.9 5.4 0.4 3 0.4 3 2.2 5.4 2.4 1.9 2.4 1.9 6 1.7 3.5-0.8 3.5-0.8 5.5-3.3 1.2-3.7 0.6-5.3-1.1-8.8-3.9-2.6-5.7-2.7-9.7-0.4zm19 0c-2.5 2.2-2.5 2.2-2.9 5.4 0.4 3 0.4 3 2.2 5.4 2.4 1.9 2.4 1.9 6 1.7 3.5-0.8 3.5-0.8 5.5-3.3 1.2-3.7 0.6-5.3-1.1-8.8-3.9-2.6-5.7-2.7-9.7-0.4zm-105.2 25.3c-9.8 10.1-14.9 22.4-17.1 36.1q7.3 0.4 14.6 0.5 2.5 0.1 5 0.3c5.3 0.2 10.2 0.3 15.4-0.8 2.6-2.4 3.7-4.3 5-7.5 2.5-6.1 8.4-8.7 14-11.5 0-11.5 0-23.1 0-35-13.9 0-27.1 8.7-36.9 17.9zm54.9-17.9q-0.4 7.3-0.5 14.6-0.1 2.5-0.3 5c-0.2 5.3-0.3 10.2 0.8 15.4 2.4 2.6 4.3 3.7 7.5 5 6.1 2.5 8.7 8.4 11.5 14 11.6 0 23.1 0 35 0-1.5-9.2-1.5-9.2-4.6-17.2-0.7-1.4-0.7-1.4-1.4-2.8q-0.5-1-1-2-1.5 0-3-0.1c-15.1-0.5-15.1-0.5-20-4.9-3.9-4.8-4.6-8.4-4.7-14.4q-0.1-1.1-0.1-2.2-0.1-2.7-0.2-5.4-3.6-1.3-7.2-2.5-1.1-0.4-2.1-0.7c-3.5-1.2-6-1.8-9.7-1.8zm-72 72q0.4 2.6 0.9 5.3 0.2 1.4 0.5 2.9c0.5 2.6 1.3 4.5 2.6 6.8q1.8 0 3.7 0.1 2.4 0.1 4.8 0.2c1.2 0 1.2 0 2.4 0 5.7 0.2 10.3 1.4 15.1 4.7 2.5 3.2 4.2 6.4 6 10q2.2-3.4 4.4-6.9 0.7-0.9 1.3-1.9c2.3-3.5 2.3-3.5 4.3-7.2q-1-0.7-2.1-1.4c-2.9-2.6-2.9-2.6-3.9-5-1.3-3.3-2.4-5.2-5-7.6-6-1.3-11.8-0.9-17.9-0.6q-2.5 0.1-5 0.1-6 0.2-12.1 0.5zm88.5 2.4c-1.9 2.8-1.9 2.8-3.2 5.8-1.4 3-2.9 4.7-5.3 6.8q0.6 0.8 1.1 1.6c4.6 6.5 8.9 13.1 13.2 19.8q0.6 1 1.3 2.1 0.7 1 1.3 2c1 1.7 1 1.7 3.1 2.5 8.5-7 15.3-14 20.4-23.9q0.5-0.9 1-1.9c2.7-5.5 3.7-11.1 4.6-17.2q-7.3-0.4-14.6-0.6-2.4-0.1-4.9-0.2c-9.7-0.9-9.7-0.9-18 3.2zm-94.4 26.9c-1.3 2-2 3.2-2.1 5.7 1.1 2.2 2.2 4.2 4 6 4.8 0.5 4.8 0.5 9-1.6 1.4-3.4 0.9-5.8 0-9.4-1.9-2.4-1.9-2.4-5.4-2.3-3.5 0-3.5 0-5.5 1.6zm19 0c-1.3 2-2 3.2-2.1 5.7 1.1 2.2 2.2 4.2 4 6 3.4 0.4 3.4 0.4 7 0 2.7-2.2 3-3.6 3.4-7.1-0.2-2.8-0.2-2.8-1.5-4.8-3.4-2-7.4-2.1-10.8 0.2z"/>
</svg>
