<svg version="1.2" xmlns="http://www.w3.org/2000/svg" viewBox="0 0 157 157" width="120" height="120">
	<title>secure_vpn-svg-svg</title>
	<style>
		.s0 { fill: #19d7ec } 
		.s1 { fill: #18e2ea } 
		.s2 { fill: #19f0e3 } 
		.s3 { fill: #19cff4 } 
		.s4 { fill: #19ebeb } 
		.s5 { fill: #18fae5 } 
		.s6 { fill: #18fedd } 
		.s7 { fill: #18b6fd } 
		.s8 { fill: #18e8ed } 
		.s9 { fill: #18fde1 } 
		.s10 { fill: #19f2e9 } 
		.s11 { fill: #19f3e8 } 
		.s12 { fill: #19c8fb } 
		.s13 { fill: #18fedf } 
		.s14 { fill: #1afadc } 
		.s15 { fill: #18bafa } 
	</style>
	<path fill-rule="evenodd" class="s0" d="m78.8 0.6c1.9 0 1.9 0 3.9-0.1 9.6 0.6 18 6.4 26 11.2q1.6 0.9 3.2 1.9 3.1 1.8 6.2 3.7 3.8 2.2 7.5 4.4c11.2 6.5 20.3 12.3 24 25.3 1.6 5.9 1.9 11.5 1.8 17.6q0 1.5 0 3.2 0.1 3.3 0 6.7 0 5 0.1 10.1c0.1 27.4 0.1 27.4-9.5 38.4-7.2 7.1-16.3 11.5-25.1 16.3-5.9 3.2-11.7 6.7-17.5 10.1-6.7 4-12.3 6-20.1 6q-2 0-4 0.1c-9.6-0.6-18-6.4-26-11.2q-1.6-0.9-3.2-1.9-3.1-1.8-6.2-3.7-3.8-2.2-7.5-4.4c-11.2-6.5-20.3-12.3-24-25.3-1.6-5.9-1.9-11.5-1.8-17.6q0-1.5 0-3.2-0.1-3.3 0-6.7 0-5-0.1-10.1c-0.1-27.4-0.1-27.4 9.5-38.4 7.2-7.1 16.3-11.5 25.1-16.3 5.9-3.2 11.7-6.7 17.5-10.1 6.7-4 12.3-6 20.2-6zm-38.8 58.4c-5.5 6.7-6.8 13.5-6 22 1.3 6.1 4.4 10.9 9 15 6.8 4.3 13.6 6.2 21.6 4.4 7.5-2.3 12-6 16.4-12.4q0.5-1.5 1-3c9.9-0.5 9.9-0.5 20-1 0 5.6 0 11.2 0 17q7.4 0 15 0c0-5.6 0-11.2 0-17 3 0 5.9 0 9 0 0-5.3 0-10.6 0-16q-2 0-4 0-7.2 0.1-14.5 0-3.2 0-6.3 0-4.6 0.1-9.1 0-1.4 0-2.8 0.1c-2.7-0.1-4.8-0.2-7.3-1.1-2.3-2.4-3.6-5-5-8-4.6-4.8-9.5-6.9-16-8-8.5 0-14.5 2.6-21 8z"/>
	<path class="s1" d="m62 67c3.7 2.1 4.8 3.3 6 7.4 0 4-0.6 5.5-3 8.6-3.8 2.5-5.6 2.5-10 2-2.9-2-4.6-3.4-5.4-7-0.2-3.5 0.1-5.6 2.3-8.4 3.5-2.6 5.7-3 10.1-2.6z"/>
	<path class="s2" d="m9 64q0.5 0 1 0 0 1.6 0 3.2c-0.1 14.3 0.4 28.5 1 42.8q-1 0-2 0c-1.7-5.1-2.3-9.6-2.3-14.9q0-1.1 0-2.3 0-2.3 0-4.6 0.1-3.5 0-7 0-2.3 0-4.5 0-1.1 0-2.1c0.1-4 0.6-7 2.3-10.6z"/>
	<path class="s3" d="m128 67q0 4.5 0.1 8.9 0 1.3 0 2.6 0 1.2 0 2.5 0 1.1 0 2.2c-0.1 1.8-0.1 1.8-1.1 2.8q-2.5 0.3-5.1 0.6c-1.3 0.1-1.3 0.1-2.7 0.2q-1.1 0.1-2.2 0.2 0-1.5 0-3c3 0 5.9 0 9 0 0-5.3 0-10.6 0-16-13.9 0-27.7 0-42 0q0-0.5 0-1 8.9-0.3 17.8-0.5 3.1-0.1 6.1-0.1 4.4-0.2 8.7-0.3 1.4 0 2.8-0.1c1.2 0 1.2 0 2.5 0 1.1-0.1 1.1-0.1 2.3-0.1 1.8 0.1 1.8 0.1 3.8 1.1z"/>
	<path class="s4" d="m34 65q0.5 0 1 0-0.1 1.6-0.1 3.2c-0.2 9.2-0.4 16.5 5.5 24.1 2.4 2.5 4.6 4 7.6 5.7q0 1 0 2c-7.2-2.5-10.5-6.3-14-12.9-1.8-3.8-2.2-6.8-2.2-11q0-1.5 0-3.1c0.2-3.1 0.9-5.2 2.2-8z"/>
	<path class="s5" d="m89 2q0 1 0 2-0.8-0.2-1.6-0.5c-8.1-1.7-15.9-0.7-23.4 2.5q-0.5-1-1-2c6.8-3.4 18.9-5.6 26-2zm-26 3q-0.5 1.5-1 3-1.5 0.5-3 1-0.5-1-1-2c3-2 3-2 5-2z"/>
	<path class="s6" d="m25 27c-1.4 3.4-3.3 5.4-5.9 7.9-3.3 3.2-5.4 5.8-7.1 10.1q-1 0-2 0c0.9-7 5.7-11.9 10.8-16.6 2.2-1.4 2.2-1.4 4.2-1.4zm-16 18c1 0.5 1 0.5 2 1q0 1 0 2-1 0-2 0 0-1.5 0-3z"/>
	<path class="s7" d="m146 111q1 0.5 2 1c-2.3 7.5-7.3 13.2-14 17q0-1.5 0-3c1.4-1.3 1.4-1.3 3.2-2.6 4.3-3.5 6.4-7.5 8.8-12.4z"/>
	<path class="s8" d="m64 50c6.8 1 11.9 4.8 16.6 9.8 1.4 2.2 1.4 2.2 1.4 4.2-3-1-3-1-5.2-3.8-2.9-3.7-6.5-5.4-10.8-7.2q0-1 0-2-1-0.5-2-1z"/>
	<path class="s9" d="m56 9q-0.5 1.5-1 3-1.5 0.5-3 1-0.5-1-1-2c3-2 3-2 5-2zm-5 3c-1 3-1 3-3.3 4.4q-1.4 0.6-2.8 1.3-1.3 0.6-2.7 1.3-1.1 0.5-2.2 1-0.5-1-1-2 2.4-1.5 4.9-3c1.3-0.8 1.3-0.8 2.7-1.7 2.4-1.3 2.4-1.3 4.4-1.3z"/>
	<path class="s10" d="m91 3c5.8 1.5 10.2 4.6 15 8q-0.5 1-1 2c-5.3-2.6-10.6-5.3-16-8q1-1 2-2z"/>
	<path class="s11" d="m48 51q1 0.5 2 1c-2 2.1-4 3.8-6.4 5.4-3.2 2.1-5.4 4.5-7.6 7.6q-0.5-1-1-2c4-4.8 7.6-8.8 13-12z"/>
	<path class="s12" d="m58 147c4.7 1.5 9.4 3.2 14 5q-0.5 1-1 2c-5.3-0.5-8.6-2.3-13-5q0-1 0-2z"/>
	<path class="s13" d="m39 19q-0.5 1.5-1 3c-2.6 1.2-2.6 1.2-5 2q-0.5-1-1-2c4.8-3 4.8-3 7-3zm-7 4q-0.5 1.5-1 3c-2.6 1.2-2.6 1.2-5 2q-0.5-1-1-2c4.8-3 4.8-3 7-3z"/>
	<path class="s14" d="m8 48q1 1 2 2c-0.3 3.2-0.3 3.2-1 7q-0.3 1.9-0.6 3.9-0.2 1.5-0.4 3.1-0.5 0-1 0 0-2.6-0.1-5.2 0-1.4 0-2.9c0.1-2.8 0.5-5.2 1.1-7.9z"/>
	<path class="s15" d="m150 95q0.5 0 1 0c0.3 8.6 0.3 8.6-2 12q-0.5 0-1 0 0.2-2.7 0.4-5.4 0.2-1.5 0.3-3.1c0.3-2.5 0.3-2.5 1.3-3.5z"/>
</svg>
