<svg version="1.2" xmlns="http://www.w3.org/2000/svg" viewBox="0 0 191 191" width="191" height="191">
	<title>snapchat-svg</title>
	<style>
		.s0 { fill: #ffffff } 
	</style>
	<path class="s0" d="m130 14c8.8 7.2 15.2 17.4 16.4 28.9q0.1 2.1 0.2 4.3 0.1 1.1 0.1 2.3c0.4 8.8 0.4 17.7 0.3 26.5 4.7 0.1 7.7-0.2 12-2 3.8-0.5 5.5-0.3 8.9 1.7 2.1 2.3 2.1 2.3 2.8 4.7-0.8 3-2.1 4.5-4.5 6.3-3.9 2.3-8.1 3.6-12.3 5.1-3.5 1.4-3.5 1.4-5.9 4.2-1 8.5 4.8 15.7 9.7 22.2 6.8 8.2 15.2 13.5 25.3 16.8 1.8 0.6 1.8 0.6 3.6 1.3 1.2 0.3 1.2 0.3 2.4 0.7 0.5 2.2 0.5 2.2 0 5-5.7 5.6-15.1 7.9-22.9 8.1q-1-0.1-2.1-0.1-0.2 1-0.4 2.1-0.3 1.4-0.5 2.8-0.3 1.3-0.6 2.7c-0.5 2.4-0.5 2.4-1.5 4.4q-1.1 0-2.2-0.1-5.1-0.1-10.2-0.2-1.7-0.1-3.5-0.1c-10.3-0.2-17 2.7-25.1 9-10.2 7.2-19.7 8.8-32 7.4-6.8-1.5-12.3-5.3-18-9.1q-1.5-0.9-3-1.9-1-0.7-2.1-1.3c-7.1-4-13-4.3-21-4q-1.7 0-3.5 0.1-4.2 0-8.4 0.2-0.7-1.9-1.4-3.8-0.4-1.1-0.8-2.2-1-2.5-1.8-5c-1.8-0.8-1.8-0.8-4.1-1.2q-1.2-0.3-2.5-0.6-2.6-0.6-5.3-1.2c-4.9-1.2-8.4-2.3-12.1-6-0.8-2.2-0.8-2.2-1-4 1.4-0.6 1.4-0.6 2.9-1.2 0.9-0.5 0.9-0.5 1.9-0.9q2.3-0.9 4.6-1.7c6.5-2.4 11.4-5.6 16.6-10.2 0.9-0.8 0.9-0.8 1.8-1.5 4.1-3.7 6.8-7.9 9.6-12.6q0.5-0.9 1-1.8c1.9-3.3 3.4-6.3 3.6-10.1-0.9-2.5-1.6-3.7-3.8-5.2q-1.1-0.4-2.3-0.9c-1.2-0.5-1.2-0.5-2.4-1-1.2-0.5-1.2-0.5-2.5-1q-2.5-1.1-4.9-2.1c-1.1-0.4-1.1-0.4-2.3-0.9-1.8-0.9-1.8-0.9-3.8-2.9-0.4-3.4-0.4-3.4 0-7 2.1-2 2.1-2 5-3 3.6 0.2 6.6 0.9 10 2q2.1 0.1 4.2 0.1 1.9-0.1 3.8-0.1c0-1.4 0-1.4 0-2.9q-0.1-5.3-0.1-10.7 0-2.3-0.1-4.6c-0.1-14.9 1.8-25.5 10.5-38.1 19.3-19.3 51.6-22 73.7-5.7z"/>
</svg>
