<svg version="1.2" xmlns="http://www.w3.org/2000/svg" viewBox="0 0 226 226" width="226" height="226">
	<title>svgviewer-output (17)-svg</title>
	<style>
		.s0 { fill: #000000;stroke: #000000;stroke-width: 4 } 
	</style>
	<path class="s0" d="m176.8 178.1c5.4 2.3 6.1 8.5 3.8 13.2-3.1 4.6-8.5 6.1-13.1 3-36.4-22.5-82.1-27.2-136.3-14.8-5.4 1.5-10-2.4-11.6-7-1.5-5.4 2.4-10.1 7-11.6 58.9-13.1 109.9-7.6 150.2 17.2zm19.4-44.9c4.6 2.4 6.9 10.1 3 15.5-3.8 5.4-10.8 7.7-16.2 3.9-41.8-25.6-105.2-33.5-154-18-6.2 1.5-13.2-1.6-14.7-7.8-1.6-6.2 1.5-13.1 7.7-14.7 56.6-16.9 126.2-8.3 174.2 21.1zm19.4-51.8c6.9 3.9 9.3 13.2 5.4 20.1-3.9 5.4-13.2 7.7-20.2 3.9-49.5-29.5-132.3-32.7-179.5-18.1-7.7 2.4-15.5-2.3-17.8-9.3-2.3-7.7 2.3-15.4 9.3-17.8 55-16.1 145.5-12.9 202.8 21.2z"/>
</svg>
