<svg xmlns="http://www.w3.org/2000/svg" xmlns:xlink="http://www.w3.org/1999/xlink" width="192px" height="192px" viewBox="0 0 192 192" version="1.1">
<g id="surface1">
<rect x="0" y="0" width="192" height="192" style="fill:rgb(100%,100%,100%);fill-opacity:1;stroke:none;"/>
<path style=" stroke:none;fill-rule:evenodd;fill:rgb(0%,0%,0%);fill-opacity:1;" d="M 11.769531 82.105469 C 63.355469 60.601562 97.742188 46.410156 114.964844 39.558594 C 164.097656 19.984375 174.300781 16.585938 180.949219 16.480469 C 182.417969 16.464844 185.695312 16.796875 187.820312 18.445312 C 189.597656 19.847656 190.089844 21.71875 190.332031 23.035156 C 190.570312 24.347656 190.863281 27.363281 190.625 29.710938 C 187.964844 56.484375 176.445312 121.496094 170.582031 151.492188 C 168.109375 164.179688 163.214844 168.4375 158.492188 168.859375 C 148.214844 169.753906 140.410156 162.359375 130.460938 156.101562 C 114.890625 146.34375 106.09375 140.242188 90.984375 130.710938 C 73.507812 119.691406 84.828125 113.644531 94.792969 103.742188 C 97.394531 101.152344 142.664062 61.726562 143.542969 58.148438 C 143.652344 57.695312 143.742188 56.03125 142.71875 55.15625 C 141.671875 54.277344 140.152344 54.574219 139.054688 54.820312 C 137.496094 55.15625 112.617188 70.890625 64.417969 102.042969 C 57.367188 106.6875 50.953125 108.949219 45.238281 108.824219 C 38.917969 108.703125 26.753906 105.410156 17.722656 102.585938 C 6.640625 99.152344 -0.523438 97.367188 0.246094 91.511719 C 0.648438 88.464844 4.496094 85.328125 11.769531 82.105469 Z M 11.769531 82.105469 "/>
</g>
</svg>
