<svg xmlns="http://www.w3.org/2000/svg" xmlns:xlink="http://www.w3.org/1999/xlink" version="1.1" width="1000" height="1000" viewBox="0 0 1000 1000" xml:space="preserve">
<desc>Created with Fabric.js 3.5.0</desc>
<defs>
</defs>
<rect x="0" y="0" width="100%" height="100%" fill="rgba(255,255,255,0)"/>
<g transform="matrix(5.993 0 0 5.6818 493.9824 499.9994)" id="706280">
<path style="stroke: none; stroke-width: 1; stroke-dasharray: none; stroke-linecap: butt; stroke-dashoffset: 0; stroke-linejoin: miter; stroke-miterlimit: 4; is-custom-font: none; font-file-url: none; fill: rgb(0,0,0); fill-rule: evenodd; opacity: 1;" vector-effect="non-scaling-stroke" transform=" translate(-96.0001, -95.9259)" d="M 25.7248 86.6166 C 69.0481 67.7391 97.9253 55.2775 112.387 49.2621 C 153.649 32.0772 162.218 29.0931 167.802 29.0006 C 169.034 28.9851 171.787 29.2775 173.572 30.7236 C 175.064 31.9543 175.479 33.6003 175.68 34.7545 C 175.88 35.9082 176.126 38.5545 175.926 40.6159 C 173.695 64.1242 164.018 121.201 159.095 147.54 C 157.018 158.679 152.91 162.417 148.941 162.787 C 140.31 163.571 133.756 157.079 125.402 151.586 C 112.325 143.017 104.94 137.663 92.2484 129.294 C 77.5713 119.617 87.0787 114.309 95.448 105.616 C 97.6329 103.34 135.649 68.7239 136.387 65.5852 C 136.479 65.1853 136.556 63.7237 135.695 62.955 C 134.818 62.1857 133.541 62.4471 132.618 62.6625 C 131.31 62.955 110.417 76.7702 69.9404 104.124 C 64.0169 108.201 58.6324 110.186 53.8327 110.078 C 48.5246 109.97 38.3094 107.078 30.7244 104.601 C 21.4169 101.586 15.4016 100.016 16.0473 94.8778 C 16.3858 92.2011 19.6169 89.4473 25.7248 86.6166 Z" stroke-linecap="round"/>
</g>
</svg>
