<svg xmlns="http://www.w3.org/2000/svg" width="24" height="24" viewBox="0 0 240 240"><path d="M24.987 167.27q-.005-62.87-.004-125.737c0-10.301 6.192-16.539 16.418-16.539q62.99-.002 125.981.006c.932 0 1.864.09 2.796.138l.033 44.798a.32.32 0 0 1-.199.238c-.849-.069-1.698-.199-2.547-.199-31.537-.01-63.073.022-94.61-.068-2.445-.007-2.952.701-2.946 3.02Q69.985 104.46 70 170q-30.945.059-44.933.074c-.028-.935-.08-1.87-.08-2.804Zm45.005 2.744 99.918-.038a.55.55 0 0 0 .21.164l-.043 44.512c-.755.622-1.65.319-2.475.319q-32.511.026-97.602.029z" stroke="#000" fill-opacity=".5"/><path d="M214.821 70.036c.052.853.148 1.706.149 2.559.008 31.675.009 63.349-.008 95.023 0 .827.291 1.722-.328 2.479l-44.514.043a.56.56 0 0 1-.21-.163c.04-.543.114-1.086.114-1.628 0-32.725-.007-65.45-.012-98.175a.31.31 0 0 0 .199-.238c.854.025 1.709.071 2.564.072q21.023.018 42.046.028" stroke="#000" fill-opacity=".5"/><path d="M214.821 70.036q-21.023-.01-42.046-.028c-.855-.001-1.71-.047-2.564-.072l-.033-44.799c10.148-.033 20.307-.345 30.443-.014 8.544.279 14.342 6.853 14.366 15.415.027 9.137.01 18.273-.001 27.41-.001.696-.108 1.392-.165 2.088M170.12 170.14l44.514-.043c-.282.36-.529.754-.85 1.075a77872 77872 0 0 1-42.629 42.626c-.322.321-.716.57-1.077.854l.042-44.512M25 170h45v45H40c-8.284 0-15-6.716-15-15z" stroke="#00000000"/><path fill="#FF1C1C1E" d="M124.213 138.355V150h9.094v-11.645h7.395v-8.5h-7.395V91.86h-9.944l-26.521 39.355v7.14zm0-8.5h-17.085l16.574-24.48h.511z" stroke="#00000000"/></svg>
