<svg width="240" height="240" xmlns="http://www.w3.org/2000/svg" xmlns:svg="http://www.w3.org/2000/svg">
 <g class="layer">
  <title>Layer 1</title>
  <path d="m24.99,167.27c-0.01,-41.91 -0.01,-83.83 -0.01,-125.74c0,-10.3 6.2,-16.54 16.42,-16.54c41.99,0 83.99,0 125.98,0.01c0.93,0 1.87,0.09 2.8,0.14c0.01,14.93 0.02,29.86 0.03,44.8c-0.02,0.11 -0.09,0.19 -0.2,0.23c-0.85,-0.06 -1.7,-0.2 -2.54,-0.2c-31.54,0 -63.08,0.03 -94.61,-0.06c-2.45,-0.01 -2.96,0.7 -2.95,3.02c0.05,21.02 0.08,53.38 0.09,97.07c-20.63,0.04 -35.61,0.06 -44.93,0.07c-0.03,-0.93 -0.08,-1.87 -0.08,-2.8z" fill="#000000" fill-opacity="0.5" fill-rule="nonzero" id="svg_1" stroke="#000000" stroke-width="1"/>
  <path d="m69.99,170.01c44.68,-0.01 77.98,-0.02 99.92,-0.03c0.06,0.07 0.13,0.12 0.21,0.16c-0.01,14.84 -0.03,29.67 -0.04,44.51c-0.76,0.62 -1.65,0.32 -2.48,0.32c-21.67,0.02 -54.21,0.03 -97.6,0.03l-0.01,-44.99z" fill="#000000" fill-opacity="0.5" fill-rule="nonzero" id="svg_2" stroke="#000000" stroke-width="1"/>
  <path d="m214.82,70.04c0.05,0.85 0.15,1.7 0.15,2.55c0.01,31.68 0.01,63.35 -0.01,95.03c0,0.82 0.29,1.72 -0.33,2.48c-14.83,0.01 -29.67,0.03 -44.51,0.04c-0.08,-0.04 -0.15,-0.09 -0.21,-0.16c0.04,-0.55 0.11,-1.09 0.11,-1.63c0,-32.73 0,-65.45 -0.01,-98.18c0.11,-0.04 0.18,-0.12 0.2,-0.23c0.85,0.02 1.71,0.07 2.57,0.07c14.01,0.01 28.03,0.02 42.04,0.03" fill="#000000" fill-opacity="0.5" fill-rule="nonzero" id="svg_3" stroke="#000000" stroke-width="1"/>
  <path d="m214.82,70.04c-14.01,-0.01 -28.03,-0.02 -42.04,-0.03c-0.86,0 -1.72,-0.05 -2.57,-0.07c-0.01,-14.94 -0.02,-29.87 -0.03,-44.8c10.15,-0.04 20.31,-0.35 30.44,-0.02c8.54,0.28 14.34,6.86 14.37,15.42c0.02,9.13 0.01,18.27 0,27.41c0,0.69 -0.11,1.39 -0.17,2.09" fill="#000000" fill-rule="nonzero" id="svg_4" stroke="#00000000" stroke-width="1"/>
  <path d="m170.12,170.14c14.84,-0.01 29.68,-0.03 44.51,-0.04c-0.28,0.36 -0.53,0.75 -0.85,1.07c-14.2,14.22 -28.41,28.42 -42.62,42.63c-0.33,0.32 -0.72,0.57 -1.08,0.85c0.01,-14.84 0.03,-29.67 0.04,-44.51" fill="#000000" fill-rule="nonzero" id="svg_5" stroke="#00000000" stroke-width="1"/>
  <path d="m25,170l45,0l0,45l-30,0c-8.28,0 -15,-6.72 -15,-15l0,-30l0,0z" fill="#000000" fill-rule="nonzero" id="svg_6" stroke="#00000000" stroke-width="1"/>
  <path d="m124.21,138.35l0,11.65l9.1,0l0,-11.65l7.39,0l0,-8.5l-7.39,0l0,-37.99l-9.95,0l-26.52,39.36l0,7.13l27.37,0zm0,-8.5l-17.08,0l16.57,-24.47l0.51,0l0,24.47z" fill="#FF1C1C1E" fill-rule="nonzero" id="svg_7" stroke="#00000000" stroke-width="1"/>
 </g>
</svg>
