<svg version="1.2" xmlns="http://www.w3.org/2000/svg" viewBox="0 0 180 180" width="120" height="120">
	<title>calendar_google_4_foreground</title>
	<style>
		.s0 { fill: #000000 } 
	</style>
	<path id="Path 0" fill-rule="evenodd" class="s0" d="m22.5 13h67.3c65.5 0 67.3 0 70.2 2 1.6 1.1 3.9 3.8 5 6 1.9 3.8 2 6 2 108.5l-37.5 37.5h-53.3c-51.5 0-53.3-0.1-56.2-2-1.7-1.1-3.7-3.5-4.7-5.3-1.4-2.8-1.7-10.2-2.1-67.7-0.5-58.7-0.4-64.9 1.1-69.3 1-2.9 3-5.7 5-7.2zm27.4 117h80l0.1-80h-80zm42.2-62h9.7v29h3c2.9 0 3 0.2 3 4 0 3.8-0.1 4-3 4-2.8 0-3 0.2-3 9l-8.5-0.5-0.5-8.5h-20.9v-3.3c0-2.4 2.5-7 10.1-18.5zm-8.7 27.3c-0.5 1.5 0.1 1.7 4.4 1.7h5c0-11.6-0.2-15-0.4-15-0.3 0-2.3 2.6-4.4 5.8-2.2 3.2-4.2 6.5-4.6 7.5z"/>
</svg>
