<svg version="1.2" xmlns="http://www.w3.org/2000/svg" viewBox="0 0 158 158" width="158" height="158">
	<title>calendar_google_3_foreground</title>
	<style>
		.s0 { fill: #000000 } 
	</style>
	<path id="Path 0" fill-rule="evenodd" class="s0" d="m11.5 2h67.3c65.5 0 67.3 0 70.2 2 1.6 1.1 3.9 3.8 5 6 1.9 3.8 2 6 2 108.5l-37.5 37.5h-53.3c-51.5 0-53.3-0.1-56.2-2-1.7-1.1-3.7-3.5-4.7-5.3-1.4-2.8-1.7-10.2-2.1-67.7-0.5-58.7-0.4-64.9 1.1-69.3 1-2.9 3-5.7 5-7.2zm27.4 117h80l0.1-80h-80zm40-63c3.7 0 6.5 0.6 8.7 2 1.8 1.1 4 3.5 4.9 5.2 1 2.1 1.4 4.5 1 6.8-0.3 1.9-1.6 4.5-5.1 8.1l3.2 3.4c2.8 3 3.2 4.2 3.2 8.7 0 4.7-0.4 5.7-3.7 8.9-2.7 2.7-5 3.9-8.2 4.4-2.5 0.4-6.4 0.2-8.5-0.4-2.6-0.6-5.4-2.4-7.8-5-2.1-2.3-3.8-4.7-3.8-5.4 0-0.6 1.9-1.9 4.2-2.7 3.7-1.3 4.3-1.3 4.7 0 0.3 0.8 1.4 2.3 2.3 3.2 1 1 3.3 1.8 5.1 1.8 1.8-0.1 4.1-0.8 5-1.8 1-0.9 1.8-2.9 1.8-4.5 0-1.7-0.9-3.3-2.3-4.2-1.2-0.8-3.9-1.5-6-1.5-3.7 0-3.7-0.1-3.7-4 0-3.6 0.2-4 2.5-4 1.3 0 3.6-0.6 5-1.3 1.4-0.6 2.8-2.3 3.1-3.7 0.3-1.6-0.1-3.1-1.3-4.3-1-1-3.1-1.8-4.6-1.7-1.6 0-3.7 1-5 2.4-2.1 2.2-2.5 2.3-6 1-3.7-1.4-3.7-1.5-2.4-4.2 0.8-1.5 2.9-3.7 4.8-4.9 2.4-1.7 4.9-2.3 8.8-2.3z"/>
</svg>
