<svg version="1.2" xmlns="http://www.w3.org/2000/svg" viewBox="0 0 154 154" width="154" height="154">
	<title>twitter (1)-svg</title>
	<style>
		.s0 { fill: #ffffff } 
	</style>
	<path fill-rule="evenodd" class="s0" d="m3 4q9.4-0.4 18.7-0.6 3.2-0.1 6.4-0.2c17.5-0.8 17.5-0.8 23.1 3 2.3 2.8 4.1 5.6 5.8 8.8q1.7 2.3 3.4 4.6 1.7 2.2 3.3 4.4 1.8 2.4 3.6 4.9 0.9 1.2 1.8 2.5 4.9 6.7 9.8 13.3 1.8 2.4 3.5 4.8 0.8 1 1.5 2.1 0.6 0.7 1.1 1.4c5-4.1 9.4-8.4 13.7-13.1q1-1 1.9-2 2.7-3 5.4-5.9 0.7-0.8 1.5-1.6 3.3-3.6 6.6-7.3c13.8-15 13.8-15 17.9-19.1q3.5-0.1 7.1-0.1 1.9 0.1 3.9 0.1 1.5 0 3 0c-1.4 3.1-3 5.2-5.3 7.7q-0.9 1-2 2-1 1.1-2.1 2.2-2.2 2.3-4.4 4.6-1 1.2-2.1 2.3-4.2 4.5-8.3 8.9-0.8 0.8-1.5 1.6-1.4 1.6-2.9 3.1-3 3.3-6 6.6-1.5 1.6-3 3.2-3.7 4-7.4 7.9-0.7 0.8-1.4 1.5-2 2.1-3.9 4.1c-1.9 2.1-1.9 2.1-1.5 4.2 1 2.5 2.2 4.3 3.9 6.4q1 1.3 2 2.6 1 1.3 2.1 2.7 2.2 2.8 4.4 5.7 1.1 1.4 2.2 2.9c3.2 4.1 6.3 8.3 9.3 12.4q0.9 1.2 1.7 2.4 1.8 2.3 3.5 4.7 3.5 4.7 6.9 9.4 1.8 2.4 3.5 4.7 4.6 6.3 9.3 12.6 1 1.3 2 2.6 1.8 2.6 3.7 5.1 0.9 1.2 1.7 2.3 0.8 1 1.5 2c1.1 1.6 1.1 1.6 1.1 2.6-39.4 3.3-39.4 3.3-49.5-1.8-5.2-4.5-8.2-10.1-11.1-16.3-2.3-4.7-5.5-8.7-8.8-12.9q-1.7-2.3-3.4-4.6c-4.3-5.9-8.7-11.7-13.2-17.4q-1.1 1.1-2.1 2.1-2.9 2.9-5.8 5.7-1.5 1.5-3 3c-0.7 0.7-0.7 0.7-1.5 1.5-3.4 3.4-6.6 7-9.8 10.7-3.6 4-7.3 7.9-11 11.8-3.1 3.2-6 6.4-8.7 9.9-6.3 7.9-6.3 7.9-11.9 9-3.5 0-6.8-0.2-10.2-0.7 1.3-2.9 2.7-5 4.9-7.3q0.8-0.8 1.7-1.8 0.9-0.9 1.8-1.9 2-2 3.9-4.1 0.9-1 1.9-2 3.7-3.9 7.3-7.9 7.1-7.7 14.3-15.4 7-7.5 13.9-15.1 3.1-3.3 6.3-6.5c-1.6-5.2-4.9-8.9-8.3-13.1-5-6.4-9.9-12.8-14.7-19.3q-0.9-1.2-1.7-2.4-1.8-2.4-3.5-4.8-4.5-6-8.9-12.1-0.9-1.2-1.8-2.3-4.3-5.9-8.6-11.7-0.9-1.1-1.7-2.2-1.6-2.1-3.2-4.2c-3.6-4.7-3.6-4.7-3.6-6.9zm21 11c3.6 5.7 7.6 11.2 11.8 16.5 3.7 4.8 7.3 9.6 10.8 14.5q7.6 10.3 15.4 20.5 7.6 9.9 15 20c5.6 7.7 11.4 15.3 17.1 22.8q7.3 9.5 14.4 19c2.1 3 2.1 3 4.5 5.7q2 0.1 4 0.1 1.2 0 2.5 0 1.3 0 2.6 0 1.2 0 2.6-0.1 3.1 0 6.3 0c-2.5-4.6-5.1-8.7-8.4-12.8-4.2-5.3-8.2-10.7-12.2-16.2q-7.6-10.3-15.4-20.5-8.5-11.1-16.7-22.3-7.5-10.3-15.3-20.3c-3.4-4.4-6.6-8.7-9.5-13.5-4.9-8.7-4.9-8.7-13-14.2-5.6-0.8-10.9-0.2-16.5 0.8z"/>
</svg>
