<svg version="1.2" xmlns="http://www.w3.org/2000/svg" viewBox="0 0 175 176" width="119" height="120">
	<title>via-svg</title>
	<style>
		.s0 { fill: #ffffff } 
	</style>
	<path class="s0" d="m96 9c18.3 1.5 18.3 1.5 37 3 4.5 10.1 4.5 10.1 5.8 14.2q0.5 1.3 0.9 2.7 0.5 1.5 1 3 0.5 1.5 1 3.2 1.7 5.1 3.4 10.3 1.7 5.5 3.5 11 1.3 3.9 2.5 7.7 4.3 13.1 8.6 26.2 1 3 2 6 0.3 1 0.7 2 0.6 2 1.2 4 1.6 4.8 3.2 9.6 1.8 5.4 3.6 10.8 0.5 1.5 1 3.2c4.1 12.4 4.1 12.4 2.9 16.4-1.6 2.2-2.7 2.5-5.4 3.2q-1.3 0.4-2.7 0.7-9 2.2-18.1 4.1-3.4 0.7-6.9 1.4-2.2 0.5-4.4 1-1 0.2-2.1 0.4c-4.6 1-8.1 0.8-12.7-0.1-1.5-3.5-2.5-6.8-3.2-10.6q-0.3-1.7-0.6-3.4-0.3-1.8-0.6-3.7-0.4-1.9-0.7-3.9-1-5.3-1.9-10.6-1-5.5-2.1-11.1-1.6-9.3-3.3-18.6-1.9-10.7-3.9-21.5-1.7-9.2-3.3-18.5-1-5.5-2-11-1.1-6.1-2.2-12.3-0.4-1.8-0.7-3.7-0.3-1.6-0.6-3.4-0.3-1.4-0.5-2.9c-0.4-2.8-0.4-2.8-0.4-8.8z"/>
	<path class="s0" d="m90 15q1.5 0.5 3 1 1.5 8.2 3 16.3 0.5 2.8 1 5.6 0.7 4 1.5 8 0.2 1.2 0.4 2.5c2 11.1 2 11.1-0.5 15.2-1.1 1.2-1.1 1.2-2.2 2.5q-1.2 1.4-2.5 2.9-4.8 5.3-9.6 10.5c-3 3.2-5.8 6.6-8.6 10-3.6 4.5-7.5 8.8-11.4 13-3 3.2-5.8 6.5-8.5 9.9q-2.3 2.8-4.6 5.6-0.7 0.9-1.4 1.8-2.4 2.7-4.7 5.5c-0.7 0.8-0.7 0.8-1.5 1.7-1.4 1.6-1.4 1.6-4.4 4-4.9-0.3-9.2-1.6-13.8-3.2-1.8-0.7-1.8-0.7-3.7-1.4q-1-0.3-1.9-0.7-3-1.1-5.9-2.1c-9.6-3.5-9.6-3.5-10.7-4.6-0.3-2.2-0.3-2.2 0-5 1.9-2.6 1.9-2.6 4.6-5.3q1.4-1.5 2.8-3 1.3-1.3 2.6-2.7 1.7-1.9 3.4-3.8 0.8-1 1.6-1.9 2.4-2.7 4.7-5.5c5.8-6.8 11.8-13.5 17.9-20.1 4.1-4.6 8.1-9.2 12.1-13.9 5.8-6.8 11.8-13.5 17.8-20.1 6.8-7.4 13.1-15 19.5-22.7z"/>
	<path class="s0" d="m43 34c1 1 1 1 1 3q0 1.3-0.1 2.6-0.1 1.5-0.1 2.9-0.1 1.5-0.2 3.1 0 1.4-0.1 2.9-0.2 4.3-0.5 8.5 0 1.1-0.1 2.3c-0.3 5.3-2.3 8.1-6 11.7q-1.5 1.6-3.1 3.1c-0.7 0.8-0.7 0.8-1.5 1.5-1.6 1.7-3.2 3.5-4.7 5.3-0.8 0.9-0.8 0.9-1.7 1.8q-5.5 6.4-10.9 12.8-0.8 0.9-1.5 1.7-1.6 1.9-3.2 3.8-0.8 0.9-1.6 1.9-0.7 0.9-1.5 1.8-0.6 0.6-1.2 1.3-0.5 0-1 0c0.5-11.8 2.5-23.4 4.4-35.1q0.8-5.1 1.6-10.3 0.6-3.3 1.1-6.6 0.2-1.6 0.5-3.1c0.2-1.5 0.2-1.5 0.5-2.9q0.2-1.3 0.4-2.6c0.6-2.6 1.3-5 2.5-7.4 2-0.9 2-0.9 4.3-1.4q1.3-0.2 2.6-0.5 1.4-0.2 2.8-0.4 1.3-0.3 2.7-0.5c4.9-0.9 9.6-1.5 14.6-1.2z"/>
</svg>
